<?xml version="1.0" encoding="UTF-8" standalone="no"?>
<!-- Created with Inkscape (http://www.inkscape.org/) -->

<svg
   xmlns:dc="http://purl.org/dc/elements/1.1/"
   xmlns:cc="http://creativecommons.org/ns#"
   xmlns:rdf="http://www.w3.org/1999/02/22-rdf-syntax-ns#"
   xmlns:svg="http://www.w3.org/2000/svg"
   xmlns="http://www.w3.org/2000/svg"
   xmlns:xlink="http://www.w3.org/1999/xlink"
   xmlns:sodipodi="http://sodipodi.sourceforge.net/DTD/sodipodi-0.dtd"
   xmlns:inkscape="http://www.inkscape.org/namespaces/inkscape"
   width="512"
   height="512"
   id="svg3266"
   version="1.1"
   inkscape:version="0.48.4 r9939"
   sodipodi:docname="CityIcon.svg"
   inkscape:export-filename="C:\Users\William\Documents\GitHub\gridflow\app\assets\images\CityIconBorder.png"
   inkscape:export-xdpi="90"
   inkscape:export-ydpi="90">
  <defs
     id="defs3268" />
  <sodipodi:namedview
     id="base"
     pagecolor="#ffffff"
     bordercolor="#666666"
     borderopacity="1.0"
     inkscape:pageopacity="0.0"
     inkscape:pageshadow="2"
     inkscape:zoom="0.35"
     inkscape:cx="240.79885"
     inkscape:cy="292.44217"
     inkscape:document-units="px"
     inkscape:current-layer="layer1"
     showgrid="false"
     inkscape:snap-bbox="true"
     inkscape:bbox-paths="true"
     inkscape:bbox-nodes="true"
     inkscape:snap-bbox-edge-midpoints="true"
     inkscape:snap-bbox-midpoints="true"
     inkscape:snap-object-midpoints="false"
     inkscape:snap-page="true"
     inkscape:window-width="724"
     inkscape:window-height="385"
     inkscape:window-x="435"
     inkscape:window-y="581"
     inkscape:window-maximized="0" />
  <metadata
     id="metadata3271">
    <rdf:RDF>
      <cc:Work
         rdf:about="">
        <dc:format>image/svg+xml</dc:format>
        <dc:type
           rdf:resource="http://purl.org/dc/dcmitype/StillImage" />
        <dc:title></dc:title>
      </cc:Work>
    </rdf:RDF>
  </metadata>
  <g
     inkscape:label="Layer 1"
     inkscape:groupmode="layer"
     id="layer1"
     transform="translate(0,-540.36218)">
    <path
       style="fill:#ffffff;fill-opacity:1;stroke:#ffffff;stroke-width:7.58626699000000040;stroke-miterlimit:4;stroke-opacity:1;stroke-dasharray:none"
       d="m 508.49315,872.37845 0,-65.64476 -56.10959,0 0,-131.28917 -84.16438,0 0,65.64462 -28.05479,0 0,-131.28914 -56.1096,0 0,-65.64469 -84.16438,0 0,131.2893 -28.0548,0 0,-98.467 -56.10958,0 0,196.93375 -56.1096,0 0,32.82233 -56.1095849,0 0,65.64476 z"
       id="path3903"
       inkscape:connector-curvature="0"
       sodipodi:nodetypes="ccccccccccccccccccccc"
       inkscape:export-filename="C:\Users\William\Documents\GitHub\gridflow\app\assets\images\CityIcon.png"
       inkscape:export-xdpi="90"
       inkscape:export-ydpi="90" />
    <g
       id="g4727"
       transform="matrix(1.4027398,0,0,1.6411154,-331.60005,-449.58178)"
       mask="none"
       style="fill:#ffffff;fill-opacity:1">
      <rect
         y="792.02551"
         x="241.89456"
         height="7"
         width="14"
         id="rect4468"
         style="color:#000000;fill:#ffffff;fill-opacity:1;fill-rule:nonzero;stroke:none;stroke-width:20;marker:none;visibility:visible;display:inline;overflow:visible;enable-background:accumulate" />
      <use
         height="1280"
         width="854"
         transform="translate(-1.4080308e-8,-20.000003)"
         id="use4482"
         xlink:href="#rect4468"
         y="0"
         x="0"
         style="fill:#ffffff;fill-opacity:1" />
      <use
         height="1280"
         width="854"
         transform="translate(20,4.2240981e-7)"
         id="use4484"
         xlink:href="#use4482"
         y="0"
         x="0"
         style="fill:#ffffff;fill-opacity:1" />
      <use
         height="1280"
         width="854"
         transform="translate(-1.4080308e-8,20)"
         id="use4486"
         xlink:href="#use4484"
         y="0"
         x="0"
         style="fill:#ffffff;fill-opacity:1" />
      <use
         height="1280"
         width="854"
         transform="translate(20,4.2240981e-7)"
         id="use4488"
         xlink:href="#use4484"
         y="0"
         x="0"
         style="fill:#ffffff;fill-opacity:1" />
      <use
         height="1280"
         width="854"
         transform="translate(20,4.2240981e-7)"
         id="use4490"
         xlink:href="#use4486"
         y="0"
         x="0"
         style="fill:#ffffff;fill-opacity:1" />
      <use
         height="1280"
         width="854"
         transform="translate(-1.4080308e-8,-20)"
         id="use4492"
         xlink:href="#use4488"
         y="0"
         x="0"
         style="fill:#ffffff;fill-opacity:1" />
      <use
         height="1280"
         width="854"
         transform="translate(20,4.2240981e-7)"
         id="use4494"
         xlink:href="#use4492"
         y="0"
         x="0"
         style="fill:#ffffff;fill-opacity:1" />
      <use
         height="1280"
         width="854"
         transform="translate(20,4.2240981e-7)"
         id="use4496"
         xlink:href="#use4488"
         y="0"
         x="0"
         style="fill:#ffffff;fill-opacity:1" />
      <use
         height="1280"
         width="854"
         transform="translate(20,4.2240981e-7)"
         id="use4498"
         xlink:href="#use4490"
         y="0"
         x="0"
         style="fill:#ffffff;fill-opacity:1" />
      <use
         height="1280"
         width="854"
         transform="translate(20,4.2240981e-7)"
         id="use4500"
         xlink:href="#use4494"
         y="0"
         x="0"
         style="fill:#ffffff;fill-opacity:1" />
      <use
         height="1280"
         width="854"
         transform="translate(20,4.2240981e-7)"
         id="use4502"
         xlink:href="#use4496"
         y="0"
         x="0"
         style="fill:#ffffff;fill-opacity:1" />
      <use
         height="1280"
         width="854"
         transform="translate(20,4.2240981e-7)"
         id="use4504"
         xlink:href="#use4498"
         y="0"
         x="0"
         style="fill:#ffffff;fill-opacity:1" />
      <use
         height="1280"
         width="854"
         transform="translate(20,4.2240981e-7)"
         id="use4506"
         xlink:href="#use4500"
         y="0"
         x="0"
         style="fill:#ffffff;fill-opacity:1" />
      <use
         height="1280"
         width="854"
         transform="translate(20,4.2240981e-7)"
         id="use4508"
         xlink:href="#use4502"
         y="0"
         x="0"
         style="fill:#ffffff;fill-opacity:1" />
      <use
         height="1280"
         width="854"
         transform="translate(20,4.2240981e-7)"
         id="use4510"
         xlink:href="#use4504"
         y="0"
         x="0"
         style="fill:#ffffff;fill-opacity:1" />
      <use
         height="1280"
         width="854"
         transform="translate(-1.4080308e-8,-60)"
         id="use4512"
         xlink:href="#use4500"
         y="0"
         x="0"
         style="fill:#ffffff;fill-opacity:1" />
      <use
         height="1280"
         width="854"
         transform="translate(-1.4080308e-8,-60)"
         id="use4514"
         xlink:href="#use4502"
         y="0"
         x="0"
         style="fill:#ffffff;fill-opacity:1" />
      <use
         height="1280"
         width="854"
         transform="translate(-1.4080308e-8,-60)"
         id="use4516"
         xlink:href="#use4504"
         y="0"
         x="0"
         style="fill:#ffffff;fill-opacity:1" />
      <use
         height="1280"
         width="854"
         transform="translate(-1.4080308e-8,-60)"
         id="use4518"
         xlink:href="#use4506"
         y="0"
         x="0"
         style="fill:#ffffff;fill-opacity:1" />
      <use
         height="1280"
         width="854"
         transform="translate(-1.4080308e-8,-60)"
         id="use4520"
         xlink:href="#use4508"
         y="0"
         x="0"
         style="fill:#ffffff;fill-opacity:1" />
      <use
         height="1280"
         width="854"
         transform="translate(-1.4080308e-8,-60)"
         id="use4522"
         xlink:href="#use4510"
         y="0"
         x="0"
         style="fill:#ffffff;fill-opacity:1" />
      <use
         height="1280"
         width="854"
         transform="translate(-1.4080308e-8,-60)"
         id="use4536"
         xlink:href="#use4512"
         y="0"
         x="0"
         style="fill:#ffffff;fill-opacity:1" />
      <use
         height="1280"
         width="854"
         transform="translate(-1.4080308e-8,-60)"
         id="use4538"
         xlink:href="#use4514"
         y="0"
         x="0"
         style="fill:#ffffff;fill-opacity:1" />
      <use
         height="1280"
         width="854"
         transform="translate(-1.4080308e-8,-60)"
         id="use4540"
         xlink:href="#use4516"
         y="0"
         x="0"
         style="fill:#ffffff;fill-opacity:1" />
      <use
         height="1280"
         width="854"
         transform="translate(-1.4080308e-8,-60)"
         id="use4542"
         xlink:href="#use4518"
         y="0"
         x="0"
         style="fill:#ffffff;fill-opacity:1" />
      <use
         height="1280"
         width="854"
         transform="translate(-1.4080308e-8,-60)"
         id="use4544"
         xlink:href="#use4520"
         y="0"
         x="0"
         style="fill:#ffffff;fill-opacity:1" />
      <use
         height="1280"
         width="854"
         transform="translate(-1.4080308e-8,-60)"
         id="use4546"
         xlink:href="#use4522"
         y="0"
         x="0"
         style="fill:#ffffff;fill-opacity:1" />
      <use
         height="1280"
         width="854"
         transform="translate(60,4.2240981e-7)"
         id="use4548"
         xlink:href="#use4500"
         y="0"
         x="0"
         style="fill:#ffffff;fill-opacity:1" />
      <use
         height="1280"
         width="854"
         transform="translate(60,4.2240981e-7)"
         id="use4550"
         xlink:href="#use4502"
         y="0"
         x="0"
         style="fill:#ffffff;fill-opacity:1" />
      <use
         height="1280"
         width="854"
         transform="translate(60,4.2240981e-7)"
         id="use4552"
         xlink:href="#use4504"
         y="0"
         x="0"
         style="fill:#ffffff;fill-opacity:1" />
      <use
         height="1280"
         width="854"
         transform="translate(60,4.2240981e-7)"
         id="use4554"
         xlink:href="#use4506"
         y="0"
         x="0"
         style="fill:#ffffff;fill-opacity:1" />
      <use
         height="1280"
         width="854"
         transform="translate(60,4.2240981e-7)"
         id="use4556"
         xlink:href="#use4508"
         y="0"
         x="0"
         style="fill:#ffffff;fill-opacity:1" />
      <use
         height="1280"
         width="854"
         transform="translate(60,4.2240981e-7)"
         id="use4558"
         xlink:href="#use4510"
         y="0"
         x="0"
         style="fill:#ffffff;fill-opacity:1" />
      <use
         height="1280"
         width="854"
         transform="translate(60,4.2240981e-7)"
         id="use4560"
         xlink:href="#use4512"
         y="0"
         x="0"
         style="fill:#ffffff;fill-opacity:1" />
      <use
         height="1280"
         width="854"
         transform="translate(60,4.2240981e-7)"
         id="use4562"
         xlink:href="#use4514"
         y="0"
         x="0"
         style="fill:#ffffff;fill-opacity:1" />
      <use
         height="1280"
         width="854"
         transform="translate(60,4.2240981e-7)"
         id="use4564"
         xlink:href="#use4516"
         y="0"
         x="0"
         style="fill:#ffffff;fill-opacity:1" />
      <use
         height="1280"
         width="854"
         transform="translate(60,4.2240981e-7)"
         id="use4566"
         xlink:href="#use4518"
         y="0"
         x="0"
         style="fill:#ffffff;fill-opacity:1" />
      <use
         height="1280"
         width="854"
         transform="translate(60,4.2240981e-7)"
         id="use4568"
         xlink:href="#use4520"
         y="0"
         x="0"
         style="fill:#ffffff;fill-opacity:1" />
      <use
         height="1280"
         width="854"
         transform="translate(60,4.2240981e-7)"
         id="use4570"
         xlink:href="#use4522"
         y="0"
         x="0"
         style="fill:#ffffff;fill-opacity:1" />
      <use
         height="1280"
         width="854"
         transform="translate(60,4.2240981e-7)"
         id="use4572"
         xlink:href="#use4536"
         y="0"
         x="0"
         style="fill:#ffffff;fill-opacity:1" />
      <use
         height="1280"
         width="854"
         transform="translate(60,4.2240981e-7)"
         id="use4574"
         xlink:href="#use4538"
         y="0"
         x="0"
         style="fill:#ffffff;fill-opacity:1" />
      <use
         height="1280"
         width="854"
         transform="translate(60,4.2240981e-7)"
         id="use4576"
         xlink:href="#use4540"
         y="0"
         x="0"
         style="fill:#ffffff;fill-opacity:1" />
      <use
         height="1280"
         width="854"
         transform="translate(60,4.2240981e-7)"
         id="use4578"
         xlink:href="#use4542"
         y="0"
         x="0"
         style="fill:#ffffff;fill-opacity:1" />
      <use
         height="1280"
         width="854"
         transform="translate(60,4.2240981e-7)"
         id="use4580"
         xlink:href="#use4544"
         y="0"
         x="0"
         style="fill:#ffffff;fill-opacity:1" />
      <use
         height="1280"
         width="854"
         transform="translate(60,4.2240981e-7)"
         id="use4582"
         xlink:href="#use4546"
         y="0"
         x="0"
         style="fill:#ffffff;fill-opacity:1" />
      <use
         height="1280"
         width="854"
         transform="translate(-20,4.2240981e-7)"
         id="use4584"
         xlink:href="#use4548"
         y="0"
         x="0"
         style="fill:#ffffff;fill-opacity:1" />
      <use
         height="1280"
         width="854"
         transform="translate(-20,4.2240981e-7)"
         id="use4586"
         xlink:href="#use4550"
         y="0"
         x="0"
         style="fill:#ffffff;fill-opacity:1" />
      <use
         height="1280"
         width="854"
         transform="translate(-20,4.2240981e-7)"
         id="use4588"
         xlink:href="#use4552"
         y="0"
         x="0"
         style="fill:#ffffff;fill-opacity:1" />
      <use
         height="1280"
         width="854"
         transform="translate(-20,4.2240981e-7)"
         id="use4590"
         xlink:href="#use4560"
         y="0"
         x="0"
         style="fill:#ffffff;fill-opacity:1" />
      <use
         height="1280"
         width="854"
         transform="translate(-20,4.2240981e-7)"
         id="use4592"
         xlink:href="#use4562"
         y="0"
         x="0"
         style="fill:#ffffff;fill-opacity:1" />
      <use
         height="1280"
         width="854"
         transform="translate(-20,4.2240981e-7)"
         id="use4594"
         xlink:href="#use4564"
         y="0"
         x="0"
         style="fill:#ffffff;fill-opacity:1" />
      <use
         height="1280"
         width="854"
         transform="translate(-1.4080308e-8,-20)"
         id="use4596"
         xlink:href="#use4572"
         y="0"
         x="0"
         style="fill:#ffffff;fill-opacity:1" />
      <use
         height="1280"
         width="854"
         transform="translate(-1.4080308e-8,-20)"
         id="use4598"
         xlink:href="#use4578"
         y="0"
         x="0"
         style="fill:#ffffff;fill-opacity:1" />
      <use
         height="1280"
         width="854"
         transform="translate(20,4.2240981e-7)"
         id="use4600"
         xlink:href="#use4554"
         y="0"
         x="0"
         style="fill:#ffffff;fill-opacity:1" />
      <use
         height="1280"
         width="854"
         transform="translate(20,4.2240981e-7)"
         id="use4602"
         xlink:href="#use4556"
         y="0"
         x="0"
         style="fill:#ffffff;fill-opacity:1" />
      <use
         height="1280"
         width="854"
         transform="translate(20,4.2240981e-7)"
         id="use4604"
         xlink:href="#use4558"
         y="0"
         x="0"
         style="fill:#ffffff;fill-opacity:1" />
      <use
         height="1280"
         width="854"
         transform="translate(20,4.2240981e-7)"
         id="use4606"
         xlink:href="#use4566"
         y="0"
         x="0"
         style="fill:#ffffff;fill-opacity:1" />
      <use
         height="1280"
         width="854"
         transform="translate(20,4.2240981e-7)"
         id="use4608"
         xlink:href="#use4568"
         y="0"
         x="0"
         style="fill:#ffffff;fill-opacity:1" />
      <use
         height="1280"
         width="854"
         transform="translate(20,4.2240981e-7)"
         id="use4610"
         xlink:href="#use4570"
         y="0"
         x="0"
         style="fill:#ffffff;fill-opacity:1" />
      <use
         height="1280"
         width="854"
         transform="translate(20,4.2240981e-7)"
         id="use4612"
         xlink:href="#use4578"
         y="0"
         x="0"
         style="fill:#ffffff;fill-opacity:1" />
      <use
         height="1280"
         width="854"
         transform="translate(20,4.2240981e-7)"
         id="use4614"
         xlink:href="#use4580"
         y="0"
         x="0"
         style="fill:#ffffff;fill-opacity:1" />
      <use
         height="1280"
         width="854"
         transform="translate(20,4.2240981e-7)"
         id="use4616"
         xlink:href="#use4582"
         y="0"
         x="0"
         style="fill:#ffffff;fill-opacity:1" />
      <use
         height="1280"
         width="854"
         transform="translate(20,4.2240981e-7)"
         id="use4618"
         xlink:href="#use4598"
         y="0"
         x="0"
         style="fill:#ffffff;fill-opacity:1" />
      <use
         height="1280"
         width="854"
         transform="translate(40,4.2240981e-7)"
         id="use4620"
         xlink:href="#use4554"
         y="0"
         x="0"
         style="fill:#ffffff;fill-opacity:1" />
      <use
         height="1280"
         width="854"
         transform="translate(40,4.2240981e-7)"
         id="use4622"
         xlink:href="#use4556"
         y="0"
         x="0"
         style="fill:#ffffff;fill-opacity:1" />
      <use
         height="1280"
         width="854"
         transform="translate(40,4.2240981e-7)"
         id="use4624"
         xlink:href="#use4558"
         y="0"
         x="0"
         style="fill:#ffffff;fill-opacity:1" />
      <use
         height="1280"
         width="854"
         transform="translate(40,4.2240981e-7)"
         id="use4626"
         xlink:href="#use4566"
         y="0"
         x="0"
         style="fill:#ffffff;fill-opacity:1" />
      <use
         height="1280"
         width="854"
         transform="translate(40,4.2240981e-7)"
         id="use4628"
         xlink:href="#use4568"
         y="0"
         x="0"
         style="fill:#ffffff;fill-opacity:1" />
      <use
         height="1280"
         width="854"
         transform="translate(40,4.2240981e-7)"
         id="use4630"
         xlink:href="#use4570"
         y="0"
         x="0"
         style="fill:#ffffff;fill-opacity:1" />
      <use
         height="1280"
         width="854"
         transform="translate(40,4.2240981e-7)"
         id="use4632"
         xlink:href="#use4580"
         y="0"
         x="0"
         style="fill:#ffffff;fill-opacity:1" />
      <use
         height="1280"
         width="854"
         transform="translate(40,4.2240981e-7)"
         id="use4634"
         xlink:href="#use4582"
         y="0"
         x="0"
         style="fill:#ffffff;fill-opacity:1" />
      <use
         height="1280"
         width="854"
         transform="translate(40,4.2240981e-7)"
         id="use4636"
         xlink:href="#use4600"
         y="0"
         x="0"
         style="fill:#ffffff;fill-opacity:1" />
      <use
         height="1280"
         width="854"
         transform="translate(40,4.2240981e-7)"
         id="use4638"
         xlink:href="#use4602"
         y="0"
         x="0"
         style="fill:#ffffff;fill-opacity:1" />
      <use
         height="1280"
         width="854"
         transform="translate(40,4.2240981e-7)"
         id="use4640"
         xlink:href="#use4604"
         y="0"
         x="0"
         style="fill:#ffffff;fill-opacity:1" />
      <use
         height="1280"
         width="854"
         transform="translate(40,4.2240981e-7)"
         id="use4642"
         xlink:href="#use4606"
         y="0"
         x="0"
         style="fill:#ffffff;fill-opacity:1" />
      <use
         height="1280"
         width="854"
         transform="translate(40,4.2240981e-7)"
         id="use4644"
         xlink:href="#use4608"
         y="0"
         x="0"
         style="fill:#ffffff;fill-opacity:1" />
      <use
         height="1280"
         width="854"
         transform="translate(40,4.2240981e-7)"
         id="use4646"
         xlink:href="#use4610"
         y="0"
         x="0"
         style="fill:#ffffff;fill-opacity:1" />
      <use
         height="1280"
         width="854"
         transform="translate(40,4.2240981e-7)"
         id="use4648"
         xlink:href="#use4614"
         y="0"
         x="0"
         style="fill:#ffffff;fill-opacity:1" />
      <use
         height="1280"
         width="854"
         transform="translate(40,4.2240981e-7)"
         id="use4650"
         xlink:href="#use4616"
         y="0"
         x="0"
         style="fill:#ffffff;fill-opacity:1" />
      <use
         height="1280"
         width="854"
         transform="translate(60,4.2240981e-7)"
         id="use4652"
         xlink:href="#use4620"
         y="0"
         x="0"
         style="fill:#ffffff;fill-opacity:1" />
      <use
         height="1280"
         width="854"
         transform="translate(60,4.2240981e-7)"
         id="use4654"
         xlink:href="#use4622"
         y="0"
         x="0"
         style="fill:#ffffff;fill-opacity:1" />
      <use
         height="1280"
         width="854"
         transform="translate(60,4.2240981e-7)"
         id="use4656"
         xlink:href="#use4624"
         y="0"
         x="0"
         style="fill:#ffffff;fill-opacity:1" />
      <use
         height="1280"
         width="854"
         transform="translate(60,4.2240981e-7)"
         id="use4658"
         xlink:href="#use4626"
         y="0"
         x="0"
         style="fill:#ffffff;fill-opacity:1" />
      <use
         height="1280"
         width="854"
         transform="translate(60,4.2240981e-7)"
         id="use4660"
         xlink:href="#use4628"
         y="0"
         x="0"
         style="fill:#ffffff;fill-opacity:1" />
      <use
         height="1280"
         width="854"
         transform="translate(60,4.2240981e-7)"
         id="use4662"
         xlink:href="#use4630"
         y="0"
         x="0"
         style="fill:#ffffff;fill-opacity:1" />
      <use
         height="1280"
         width="854"
         transform="translate(60,4.2240981e-7)"
         id="use4664"
         xlink:href="#use4636"
         y="0"
         x="0"
         style="fill:#ffffff;fill-opacity:1" />
      <use
         height="1280"
         width="854"
         transform="translate(60,4.2240981e-7)"
         id="use4666"
         xlink:href="#use4638"
         y="0"
         x="0"
         style="fill:#ffffff;fill-opacity:1" />
      <use
         height="1280"
         width="854"
         transform="translate(60,4.2240981e-7)"
         id="use4668"
         xlink:href="#use4640"
         y="0"
         x="0"
         style="fill:#ffffff;fill-opacity:1" />
      <use
         height="1280"
         width="854"
         transform="translate(60,4.2240981e-7)"
         id="use4670"
         xlink:href="#use4642"
         y="0"
         x="0"
         style="fill:#ffffff;fill-opacity:1" />
      <use
         height="1280"
         width="854"
         transform="translate(60,4.2240981e-7)"
         id="use4672"
         xlink:href="#use4644"
         y="0"
         x="0"
         style="fill:#ffffff;fill-opacity:1" />
      <use
         height="1280"
         width="854"
         transform="translate(60,4.2240981e-7)"
         id="use4674"
         xlink:href="#use4646"
         y="0"
         x="0"
         style="fill:#ffffff;fill-opacity:1" />
      <use
         height="1280"
         width="854"
         transform="translate(20,4.2240981e-7)"
         id="use4676"
         xlink:href="#use4664"
         y="0"
         x="0"
         style="fill:#ffffff;fill-opacity:1" />
      <use
         height="1280"
         width="854"
         transform="translate(20,4.2240981e-7)"
         id="use4678"
         xlink:href="#use4666"
         y="0"
         x="0"
         style="fill:#ffffff;fill-opacity:1" />
      <use
         height="1280"
         width="854"
         transform="translate(20,4.2240981e-7)"
         id="use4680"
         xlink:href="#use4668"
         y="0"
         x="0"
         style="fill:#ffffff;fill-opacity:1" />
      <use
         height="1280"
         width="854"
         transform="translate(20,4.2240981e-7)"
         id="use4682"
         xlink:href="#use4670"
         y="0"
         x="0"
         style="fill:#ffffff;fill-opacity:1" />
      <use
         height="1280"
         width="854"
         transform="translate(20,4.2240981e-7)"
         id="use4684"
         xlink:href="#use4672"
         y="0"
         x="0"
         style="fill:#ffffff;fill-opacity:1" />
      <use
         height="1280"
         width="854"
         transform="translate(20,4.2240981e-7)"
         id="use4686"
         xlink:href="#use4674"
         y="0"
         x="0"
         style="fill:#ffffff;fill-opacity:1" />
      <use
         height="1280"
         width="854"
         transform="translate(-20,4.2240981e-7)"
         id="use4688"
         xlink:href="#use4652"
         y="0"
         x="0"
         style="fill:#ffffff;fill-opacity:1" />
      <use
         height="1280"
         width="854"
         transform="translate(-20,4.2240981e-7)"
         id="use4690"
         xlink:href="#use4654"
         y="0"
         x="0"
         style="fill:#ffffff;fill-opacity:1" />
      <use
         height="1280"
         width="854"
         transform="translate(-20,4.2240981e-7)"
         id="use4692"
         xlink:href="#use4656"
         y="0"
         x="0"
         style="fill:#ffffff;fill-opacity:1" />
      <use
         height="1280"
         width="854"
         transform="translate(-20,4.2240981e-7)"
         id="use4694"
         xlink:href="#use4662"
         y="0"
         x="0"
         style="fill:#ffffff;fill-opacity:1" />
      <use
         height="1280"
         width="854"
         transform="translate(40,4.2240981e-7)"
         id="use4696"
         xlink:href="#use4666"
         y="0"
         x="0"
         style="fill:#ffffff;fill-opacity:1" />
      <use
         height="1280"
         width="854"
         transform="translate(40,4.2240981e-7)"
         id="use4698"
         xlink:href="#use4668"
         y="0"
         x="0"
         style="fill:#ffffff;fill-opacity:1" />
      <use
         height="1280"
         width="854"
         transform="translate(40,4.2240981e-7)"
         id="use4700"
         xlink:href="#use4678"
         y="0"
         x="0"
         style="fill:#ffffff;fill-opacity:1" />
      <use
         height="1280"
         width="854"
         transform="translate(40,4.2240981e-7)"
         id="use4702"
         xlink:href="#use4680"
         y="0"
         x="0"
         style="fill:#ffffff;fill-opacity:1" />
    </g>
  </g>
</svg>
