<?xml version="1.0" encoding="UTF-8" standalone="no"?>
<!-- Created with Inkscape (http://www.inkscape.org/) -->

<svg
   xmlns:dc="http://purl.org/dc/elements/1.1/"
   xmlns:cc="http://creativecommons.org/ns#"
   xmlns:rdf="http://www.w3.org/1999/02/22-rdf-syntax-ns#"
   xmlns:svg="http://www.w3.org/2000/svg"
   xmlns="http://www.w3.org/2000/svg"
   xmlns:sodipodi="http://sodipodi.sourceforge.net/DTD/sodipodi-0.dtd"
   xmlns:inkscape="http://www.inkscape.org/namespaces/inkscape"
   width="1080"
   height="1920"
   id="svg2"
   version="1.1"
   inkscape:version="0.48.4 r9939"
   sodipodi:docname="Mockup5.svg">
  <defs
     id="defs4">
    <filter
       id="filter4034"
       inkscape:label="Drop Shadow"
       color-interpolation-filters="sRGB">
      <feFlood
         id="feFlood4036"
         flood-opacity="0.4"
         flood-color="rgb(0,0,0)"
         result="flood" />
      <feComposite
         id="feComposite4038"
         in2="SourceGraphic"
         in="flood"
         operator="in"
         result="composite1" />
      <feGaussianBlur
         id="feGaussianBlur4040"
         stdDeviation="10"
         result="blur" />
      <feOffset
         id="feOffset4042"
         dx="0"
         dy="10"
         result="offset" />
      <feComposite
         id="feComposite4044"
         in2="offset"
         in="SourceGraphic"
         operator="over"
         result="composite2" />
    </filter>
  </defs>
  <sodipodi:namedview
     id="base"
     pagecolor="#ffffff"
     bordercolor="#666666"
     borderopacity="1.0"
     inkscape:pageopacity="0.0"
     inkscape:pageshadow="2"
     inkscape:zoom="0.30542708"
     inkscape:cx="549.56862"
     inkscape:cy="768.55127"
     inkscape:document-units="px"
     inkscape:current-layer="layer1"
     showgrid="false"
     inkscape:window-width="1600"
     inkscape:window-height="877"
     inkscape:window-x="-8"
     inkscape:window-y="1912"
     inkscape:window-maximized="1"
     inkscape:object-paths="true"
     inkscape:snap-intersection-paths="false"
     inkscape:object-nodes="true"
     inkscape:snap-smooth-nodes="false"
     inkscape:snap-midpoints="false"
     inkscape:snap-nodes="true"
     inkscape:snap-bbox="true"
     inkscape:snap-bbox-midpoints="false"
     inkscape:snap-bbox-edge-midpoints="false"
     inkscape:snap-center="false"
     inkscape:snap-object-midpoints="false"
     showguides="true"
     inkscape:guide-bbox="true"
     inkscape:snap-page="true"
     inkscape:snap-global="false">
    <inkscape:grid
       type="xygrid"
       id="grid4075"
       empspacing="5"
       visible="true"
       enabled="true"
       snapvisiblegridlinesonly="true" />
  </sodipodi:namedview>
  <metadata
     id="metadata7">
    <rdf:RDF>
      <cc:Work
         rdf:about="">
        <dc:format>image/svg+xml</dc:format>
        <dc:type
           rdf:resource="http://purl.org/dc/dcmitype/StillImage" />
        <dc:title></dc:title>
      </cc:Work>
    </rdf:RDF>
  </metadata>
  <g
     inkscape:label="Layer 1"
     inkscape:groupmode="layer"
     id="layer1"
     transform="translate(0,867.63785)">
    <rect
       ry="0"
       y="-867.63788"
       x="-6.2695312e-006"
       height="864.38098"
       width="1080"
       id="rect4061"
       style="color:#000000;fill:#c9deff;fill-opacity:1;fill-rule:nonzero;stroke:none;stroke-width:20;marker:none;visibility:visible;display:inline;overflow:visible;enable-background:accumulate" />
    <flowRoot
       xml:space="preserve"
       id="flowRoot3905"
       style="font-size:72px;font-style:normal;font-variant:normal;font-weight:normal;font-stretch:normal;text-align:center;line-height:125%;letter-spacing:0px;word-spacing:0px;writing-mode:lr-tb;text-anchor:middle;color:#000000;fill:#000000;fill-opacity:1;fill-rule:nonzero;stroke:none;marker:none;visibility:visible;display:inline;overflow:visible;enable-background:accumulate;font-family:Roboto;-inkscape-font-specification:Roboto"
       transform="matrix(1.9386219,0,0,1.9386219,-1453.2591,-4347.1423)"><flowRegion
         id="flowRegion3907"><rect
           style="font-size:72px;font-style:normal;font-variant:normal;font-weight:normal;font-stretch:normal;text-align:center;line-height:125%;writing-mode:lr-tb;text-anchor:middle;color:#000000;fill:#000000;fill-opacity:1;fill-rule:nonzero;stroke:none;marker:none;visibility:visible;display:inline;overflow:visible;enable-background:accumulate;font-family:Roboto;-inkscape-font-specification:Roboto"
           id="rect3909"
           width="634.58466"
           height="90.654945"
           x="706.64368"
           y="1815.3982" /></flowRegion><flowPara
         id="flowPara3911"
         style="font-size:72px;font-style:normal;font-variant:normal;font-weight:normal;font-stretch:normal;text-align:center;line-height:125%;writing-mode:lr-tb;text-anchor:middle;color:#000000;fill:#000000;fill-opacity:1;fill-rule:nonzero;stroke:none;marker:none;visibility:visible;display:inline;overflow:visible;enable-background:accumulate;font-family:Roboto;-inkscape-font-specification:Roboto">City 3</flowPara></flowRoot>    <path
       style="fill:#757fff;fill-opacity:1;stroke:none"
       d="m 1080,-5.1095 0,-91.640416 -97.73728,0 0,-179.018204 -200.362,0 0,80.98441 -53.7559,0 0,-204.59235 -127.0586,0 0,-68.1975 -161.26694,0 0,157.70669 -63.5295,0 0,-102.29626 -156.38015,0 0,255.455 -133.54885,0 0,89.672316 -86.36078,0 0,61.926314 z"
       id="path3903"
       inkscape:connector-curvature="0"
       sodipodi:nodetypes="ccccccccccccccccccccc" />
    <flowRoot
       xml:space="preserve"
       id="flowRoot3951"
       style="font-size:72px;font-style:normal;font-variant:normal;font-weight:normal;font-stretch:normal;text-align:start;line-height:125%;letter-spacing:0px;word-spacing:0px;writing-mode:lr-tb;text-anchor:start;fill:#000000;fill-opacity:1;stroke:none;font-family:Roboto;-inkscape-font-specification:Roboto"><flowRegion
         id="flowRegion3953"><rect
           id="rect3955"
           width="77.870277"
           height="73.221306"
           x="326.59027"
           y="1710.7963"
           style="font-size:72px" /></flowRegion><flowPara
         id="flowPara3957" /></flowRoot>    <flowRoot
       xml:space="preserve"
       id="flowRoot3983"
       style="font-size:48px;font-style:normal;font-variant:normal;font-weight:normal;font-stretch:normal;text-align:start;line-height:125%;letter-spacing:0px;word-spacing:0px;writing-mode:lr-tb;text-anchor:start;fill:#000000;fill-opacity:1;stroke:none;font-family:Roboto;-inkscape-font-specification:Roboto"><flowRegion
         id="flowRegion3985"><rect
           id="rect3987"
           width="267.31589"
           height="102.27737"
           x="822.86798"
           y="495.09018"
           style="font-size:48px" /></flowRegion><flowPara
         id="flowPara3989" /></flowRoot>    <g
       id="g4141"
       transform="translate(42.563352,117.86774)">
      <path
         transform="translate(-239.53855,-523.09158)"
         d="m 1018.1248,622.93689 c 0,33.37823 -27.0584,60.43663 -60.43663,60.43663 -33.37823,0 -60.43663,-27.0584 -60.43663,-60.43663 0,-33.37823 27.0584,-60.43663 60.43663,-60.43663 33.37823,0 60.43663,27.0584 60.43663,60.43663 z"
         sodipodi:ry="60.436634"
         sodipodi:rx="60.436634"
         sodipodi:cy="622.93689"
         sodipodi:cx="957.68817"
         id="path4032"
         style="color:#000000;fill:none;stroke:#f4ab00;stroke-width:20;stroke-linecap:round;stroke-linejoin:miter;stroke-miterlimit:4;stroke-opacity:1;stroke-dasharray:none;stroke-dashoffset:0;marker:none;visibility:visible;display:inline;overflow:visible;enable-background:accumulate"
         sodipodi:type="arc" />
      <flowRoot
         transform="translate(-224.29646,-389.02258)"
         style="font-size:12px;font-style:normal;font-variant:normal;font-weight:normal;font-stretch:normal;text-align:start;line-height:125%;letter-spacing:0px;word-spacing:0px;writing-mode:lr-tb;text-anchor:start;fill:#000000;fill-opacity:1;stroke:none;font-family:Roboto;-inkscape-font-specification:Roboto"
         id="flowRoot4034"
         xml:space="preserve"><flowRegion
           id="flowRegion4036"><rect
             y="548.55334"
             x="857.73529"
             height="151.09158"
             width="225.47513"
             id="rect4038" /></flowRegion><flowPara
           style="font-size:64px"
           id="flowPara4040">City 1</flowPara></flowRoot>      <flowRoot
         xml:space="preserve"
         id="flowRoot4042"
         style="font-size:12px;font-style:normal;font-variant:normal;font-weight:normal;font-stretch:normal;text-align:start;line-height:125%;letter-spacing:0px;word-spacing:0px;writing-mode:lr-tb;text-anchor:start;fill:#000000;fill-opacity:1;stroke:none;font-family:Roboto;-inkscape-font-specification:Roboto"
         transform="translate(-184.70975,-466.82038)"><flowRegion
           id="flowRegion4044"><rect
             id="rect4046"
             width="225.47513"
             height="151.09158"
             x="857.73529"
             y="548.55334" /></flowRegion><flowPara
           id="flowPara4048"
           style="font-size:32px">SEND</flowPara></flowRoot>    </g>
    <g
       id="g4134"
       transform="translate(49.111562,111.31953)">
      <path
         sodipodi:open="true"
         sodipodi:end="4.8731517"
         sodipodi:start="0"
         sodipodi:type="arc"
         style="color:#000000;fill:none;stroke:#00f450;stroke-width:20;stroke-linecap:round;stroke-linejoin:miter;stroke-miterlimit:4;stroke-opacity:1;stroke-dasharray:none;stroke-dashoffset:0;marker:none;visibility:visible;display:inline;overflow:visible;enable-background:accumulate"
         id="path4050"
         sodipodi:cx="957.68817"
         sodipodi:cy="622.93689"
         sodipodi:rx="60.436634"
         sodipodi:ry="60.436634"
         d="m 1018.1248,622.93689 c 0,33.37823 -27.0584,60.43663 -60.43663,60.43663 -33.37823,0 -60.43663,-27.0584 -60.43663,-60.43663 0,-33.37823 27.0584,-60.43663 60.43663,-60.43663 3.2404,0 6.47555,0.2606 9.67416,0.7793"
         transform="translate(-245.91464,-267.04643)" />
      <flowRoot
         xml:space="preserve"
         id="flowRoot4052"
         style="font-size:12px;font-style:normal;font-variant:normal;font-weight:normal;font-stretch:normal;text-align:start;line-height:125%;letter-spacing:0px;word-spacing:0px;writing-mode:lr-tb;text-anchor:start;fill:#000000;fill-opacity:1;stroke:none;font-family:Roboto;-inkscape-font-specification:Roboto"
         transform="translate(-230.67255,-132.97745)"><flowRegion
           id="flowRegion4054"><rect
             id="rect4056"
             width="225.47513"
             height="151.09158"
             x="857.73529"
             y="548.55334" /></flowRegion><flowPara
           id="flowPara4068"
           style="font-size:64px">City 2</flowPara></flowRoot>    </g>
    <g
       id="g4127"
       transform="translate(72.030282,72.030285)">
      <path
         sodipodi:open="true"
         sodipodi:end="5.6951827"
         sodipodi:start="0"
         transform="translate(-250.13118,53.200818)"
         d="m 1018.1248,622.93689 c 0,33.37823 -27.0584,60.43663 -60.43663,60.43663 -33.37823,0 -60.43663,-27.0584 -60.43663,-60.43663 0,-33.37823 27.0584,-60.43663 60.43663,-60.43663 20.20718,0 39.07739,10.09903 50.28633,26.91242"
         sodipodi:ry="60.436634"
         sodipodi:rx="60.436634"
         sodipodi:cy="622.93689"
         sodipodi:cx="957.68817"
         id="path4072"
         style="color:#000000;fill:none;stroke:#b05aff;stroke-width:20;stroke-linecap:round;stroke-linejoin:miter;stroke-miterlimit:4;stroke-opacity:1;stroke-dasharray:none;stroke-dashoffset:0;marker:none;visibility:visible;display:inline;overflow:visible;enable-background:accumulate"
         sodipodi:type="arc" />
      <flowRoot
         transform="translate(-234.88909,187.26976)"
         style="font-size:12px;font-style:normal;font-variant:normal;font-weight:normal;font-stretch:normal;text-align:start;line-height:125%;letter-spacing:0px;word-spacing:0px;writing-mode:lr-tb;text-anchor:start;fill:#000000;fill-opacity:1;stroke:none;font-family:Roboto;-inkscape-font-specification:Roboto"
         id="flowRoot4074"
         xml:space="preserve"><flowRegion
           id="flowRegion4076"><rect
             y="548.55334"
             x="857.73529"
             height="151.09158"
             width="225.47513"
             id="rect4078" /></flowRegion><flowPara
           style="font-size:64px"
           id="flowPara4080">City 4</flowPara></flowRoot>    </g>
    <g
       id="g4089"
       transform="translate(-370.89194,1230.2415)">
      <rect
         style="color:#000000;fill:#ffffff;fill-opacity:1;stroke:none;stroke-width:5;marker:none;visibility:visible;display:inline;overflow:visible;filter:url(#filter4034);enable-background:accumulate"
         id="rect4063"
         width="293.33923"
         height="299.85867"
         x="422.01953"
         y="-623.27667"
         ry="32.542801" />
      <path
         style="fill:#00cec7;fill-opacity:1;stroke:none"
         d="m 573.93304,-525.20532 -8.09322,100.48625 20.29856,0 -6.20534,-100.48625 c 0,0 22.46992,3.4793 46.10921,30.1929 -16.29856,-28.88 -40.88594,-41.2819 -40.88594,-41.2819 0,0 -14.71203,-25.1822 11.61571,-60.2002 -29.84345,24.969 -25.95874,55.403 -25.95874,55.403 0,0 -11.10236,23.063 -55.25199,26.2755 28.72893,3.7929 58.37175,-10.3893 58.37175,-10.3893 z"
         id="path3774"
         inkscape:connector-curvature="0"
         sodipodi:nodetypes="cccccccccc" />
      <flowRoot
         xml:space="preserve"
         id="flowRoot3776"
         style="font-size:72px;font-style:normal;font-variant:normal;font-weight:normal;font-stretch:normal;text-align:start;line-height:125%;letter-spacing:0px;word-spacing:0px;writing-mode:lr-tb;text-anchor:start;color:#000000;fill:#000000;fill-opacity:1;fill-rule:nonzero;stroke:none;marker:none;visibility:visible;display:inline;overflow:visible;enable-background:accumulate;font-family:Roboto;-inkscape-font-specification:Roboto"
         transform="translate(-219.67531,-2229.3681)"><flowRegion
           id="flowRegion3778"><rect
             style="font-size:72px;font-style:normal;font-variant:normal;font-weight:normal;font-stretch:normal;text-align:start;line-height:125%;writing-mode:lr-tb;text-anchor:start;color:#000000;fill:#000000;fill-opacity:1;fill-rule:nonzero;stroke:none;marker:none;visibility:visible;display:inline;overflow:visible;enable-background:accumulate;font-family:Roboto;-inkscape-font-specification:Roboto"
             id="rect3780"
             width="285.91177"
             height="90.654945"
             x="706.64368"
             y="1815.3982" /></flowRegion><flowPara
           id="flowPara3782"
           style="font-size:72px;font-style:normal;font-variant:normal;font-weight:normal;font-stretch:normal;text-align:start;line-height:125%;writing-mode:lr-tb;text-anchor:start;color:#000000;fill:#000000;fill-opacity:1;fill-rule:nonzero;stroke:none;marker:none;visibility:visible;display:inline;overflow:visible;enable-background:accumulate;font-family:Roboto;-inkscape-font-specification:Roboto">Wind</flowPara></flowRoot>    </g>
    <g
       id="g4097"
       transform="translate(-26.53478,499.36675)">
      <rect
         ry="32.542801"
         y="-623.27667"
         x="82.019554"
         height="299.85867"
         width="293.33923"
         id="rect3939"
         style="color:#000000;fill:#ffffff;fill-opacity:1;stroke:none;stroke-width:5;marker:none;visibility:visible;display:inline;overflow:visible;filter:url(#filter4034);enable-background:accumulate" />
      <path
         style="fill:#7a7a7a;fill-opacity:1;stroke:none"
         d="m 251.21347,-425.83063 -117.38654,0 0,-118.54885 19.10916,0 0,53.4632 48.07146,-13.9525 0,11.628 50.03893,-13.4079 z"
         id="path3810"
         inkscape:connector-curvature="0"
         sodipodi:nodetypes="ccccccccc" />
      <flowRoot
         transform="translate(-629.38279,-2230.4796)"
         style="font-size:72px;font-style:normal;font-variant:normal;font-weight:normal;font-stretch:normal;text-align:start;line-height:125%;letter-spacing:0px;word-spacing:0px;writing-mode:lr-tb;text-anchor:start;fill:#000000;fill-opacity:1;stroke:none;font-family:Roboto;-inkscape-font-specification:Roboto"
         id="flowRoot3784"
         xml:space="preserve"><flowRegion
           id="flowRegion3786"><rect
             style="font-size:72px"
             y="1815.3982"
             x="706.64368"
             height="90.654945"
             width="285.91177"
             id="rect3788" /></flowRegion><flowPara
           style="font-size:72px;text-align:center;text-anchor:middle"
           id="flowPara3790">Fossil</flowPara></flowRoot>      <path
         transform="matrix(1.6666667,0,0,1.6666667,-191.01504,-3243.7657)"
         d="m 298.69642,1682.9025 c 0,3.8513 -3.12212,6.9734 -6.97346,6.9734 -3.85133,0 -6.97346,-3.1221 -6.97346,-6.9734 0,-3.8514 3.12213,-6.9735 6.97346,-6.9735 3.85134,0 6.97346,3.1221 6.97346,6.9735 z"
         sodipodi:ry="6.9734573"
         sodipodi:rx="6.9734573"
         sodipodi:cy="1682.9025"
         sodipodi:cx="291.72296"
         id="path3937"
         style="color:#000000;fill:#7a7a7a;fill-opacity:1;fill-rule:nonzero;stroke:none;stroke-width:10;marker:none;visibility:visible;display:inline;overflow:visible;enable-background:accumulate"
         sodipodi:type="arc" />
      <path
         sodipodi:type="arc"
         style="color:#000000;fill:#7a7a7a;fill-opacity:1;fill-rule:nonzero;stroke:none;stroke-width:10;marker:none;visibility:visible;display:inline;overflow:visible;enable-background:accumulate"
         id="path3941"
         sodipodi:cx="291.72296"
         sodipodi:cy="1682.9025"
         sodipodi:rx="6.9734573"
         sodipodi:ry="6.9734573"
         d="m 298.69642,1682.9025 c 0,3.8513 -3.12212,6.9734 -6.97346,6.9734 -3.85133,0 -6.97346,-3.1221 -6.97346,-6.9734 0,-3.8514 3.12213,-6.9735 6.97346,-6.9735 3.85134,0 6.97346,3.1221 6.97346,6.9735 z"
         transform="matrix(1.6666667,0,0,1.6666667,-179.01504,-3265.7657)" />
      <path
         transform="matrix(1.6666667,0,0,1.6666667,-165.01504,-3243.7657)"
         d="m 298.69642,1682.9025 c 0,3.8513 -3.12212,6.9734 -6.97346,6.9734 -3.85133,0 -6.97346,-3.1221 -6.97346,-6.9734 0,-3.8514 3.12213,-6.9735 6.97346,-6.9735 3.85134,0 6.97346,3.1221 6.97346,6.9735 z"
         sodipodi:ry="6.9734573"
         sodipodi:rx="6.9734573"
         sodipodi:cy="1682.9025"
         sodipodi:cx="291.72296"
         id="path3943"
         style="color:#000000;fill:#7a7a7a;fill-opacity:1;fill-rule:nonzero;stroke:none;stroke-width:10;marker:none;visibility:visible;display:inline;overflow:visible;enable-background:accumulate"
         sodipodi:type="arc" />
      <path
         transform="matrix(1.6666667,0,0,1.6666667,-219.01504,-3243.7657)"
         d="m 298.69642,1682.9025 c 0,3.8513 -3.12212,6.9734 -6.97346,6.9734 -3.85133,0 -6.97346,-3.1221 -6.97346,-6.9734 0,-3.8514 3.12213,-6.9735 6.97346,-6.9735 3.85134,0 6.97346,3.1221 6.97346,6.9735 z"
         sodipodi:ry="6.9734573"
         sodipodi:rx="6.9734573"
         sodipodi:cy="1682.9025"
         sodipodi:cx="291.72296"
         id="path3945"
         style="color:#000000;fill:#7a7a7a;fill-opacity:1;fill-rule:nonzero;stroke:none;stroke-width:10;marker:none;visibility:visible;display:inline;overflow:visible;enable-background:accumulate"
         sodipodi:type="arc" />
      <path
         sodipodi:type="arc"
         style="color:#000000;fill:#7a7a7a;fill-opacity:1;fill-rule:nonzero;stroke:none;stroke-width:10;marker:none;visibility:visible;display:inline;overflow:visible;enable-background:accumulate"
         id="path3947"
         sodipodi:cx="291.72296"
         sodipodi:cy="1682.9025"
         sodipodi:rx="6.9734573"
         sodipodi:ry="6.9734573"
         d="m 298.69642,1682.9025 c 0,3.8513 -3.12212,6.9734 -6.97346,6.9734 -3.85133,0 -6.97346,-3.1221 -6.97346,-6.9734 0,-3.8514 3.12213,-6.9735 6.97346,-6.9735 3.85134,0 6.97346,3.1221 6.97346,6.9735 z"
         transform="matrix(1.6666667,0,0,1.6666667,-205.01504,-3263.7657)" />
      <flowRoot
         transform="translate(-179.47429,-2223.9184)"
         style="font-size:12px;font-style:normal;font-variant:normal;font-weight:normal;font-stretch:normal;text-align:start;line-height:125%;letter-spacing:0px;word-spacing:0px;writing-mode:lr-tb;text-anchor:start;fill:#000000;fill-opacity:1;stroke:none;font-family:Roboto;-inkscape-font-specification:Roboto"
         id="flowRoot3959"
         xml:space="preserve"><flowRegion
           id="flowRegion3961"><rect
             y="1716.6075"
             x="333.56372"
             height="82.519249"
             width="82.519249"
             id="rect3963" /></flowRegion><flowPara
           style="font-size:72px"
           id="flowPara3965">x5</flowPara></flowRoot>      <flowRoot
         xml:space="preserve"
         id="flowRoot3967"
         style="font-size:72px;font-style:normal;font-variant:normal;font-weight:normal;font-stretch:normal;text-align:start;line-height:125%;letter-spacing:0px;word-spacing:0px;writing-mode:lr-tb;text-anchor:start;fill:#000000;fill-opacity:1;stroke:none;font-family:Roboto;-inkscape-font-specification:Roboto"
         transform="translate(-625.70728,-2426.0078)"><flowRegion
           id="flowRegion3969"><rect
             id="rect3971"
             width="294.42239"
             height="63.030102"
             x="706.64368"
             y="1815.3982"
             style="font-size:72px" /></flowRegion><flowPara
           id="flowPara3973"
           style="font-size:36px;text-align:center;text-anchor:middle">Tap for power</flowPara></flowRoot>    </g>
    <g
       id="g4077"
       transform="translate(-708.68753,862.76405)">
      <rect
         ry="32.542801"
         y="-623.27667"
         x="762.01953"
         height="299.85867"
         width="293.33923"
         id="rect4065"
         style="color:#000000;fill:#ffffff;fill-opacity:1;stroke:none;stroke-width:5;marker:none;visibility:visible;display:inline;overflow:visible;filter:url(#filter4034);enable-background:accumulate" />
      <g
         id="g3812"
         transform="translate(70.518358,-1320.3201)">
        <path
           style="fill:#0057ce;fill-opacity:1;stroke:none"
           d="m 751.78492,788.96422 62.71849,86.05563 105.01701,-18.96146 -68.55277,-77.30416 z"
           id="path2985"
           inkscape:connector-curvature="0" />
        <path
           transform="translate(0,-867.63785)"
           id="path2991"
           style="fill:none;stroke:#ffffff;stroke-width:6.19999981;stroke-linecap:butt;stroke-linejoin:miter;stroke-miterlimit:4;stroke-opacity:1;stroke-dasharray:none"
           d="m 914.68519,1679.4157 -162.71401,23.2449 m 36.78512,-77.5037 96.87282,130.9668"
           inkscape:connector-curvature="0"
           sodipodi:nodetypes="cccc" />
      </g>
      <flowRoot
         transform="translate(114.24696,-2233.3832)"
         style="font-size:72px;font-style:normal;font-variant:normal;font-weight:normal;font-stretch:normal;text-align:start;line-height:125%;letter-spacing:0px;word-spacing:0px;writing-mode:lr-tb;text-anchor:start;fill:#000000;fill-opacity:1;stroke:none;font-family:Roboto;-inkscape-font-specification:Roboto"
         id="flowRoot3762"
         xml:space="preserve"><flowRegion
           id="flowRegion3764"><rect
             style="font-size:72px;font-style:normal;font-variant:normal;font-weight:normal;font-stretch:normal;text-align:start;line-height:125%;writing-mode:lr-tb;text-anchor:start;font-family:Roboto;-inkscape-font-specification:Roboto"
             y="1815.3982"
             x="706.64368"
             height="90.654945"
             width="285.91177"
             id="rect3766" /></flowRegion><flowPara
           style="font-size:72px;font-style:normal;font-variant:normal;font-weight:normal;font-stretch:normal;text-align:start;line-height:125%;writing-mode:lr-tb;text-anchor:start;font-family:Roboto;-inkscape-font-specification:Roboto"
           id="flowPara3768">Solar</flowPara></flowRoot>      <path
         transform="translate(0,-2187.6379)"
         d="m 973.51681,1599.9318 c 0,9.9092 -8.03306,17.9423 -17.94235,17.9423 -9.90928,0 -17.94234,-8.0331 -17.94234,-17.9423 0,-9.9093 8.03306,-17.9424 17.94234,-17.9424 9.90929,0 17.94235,8.0331 17.94235,17.9424 z"
         sodipodi:ry="17.942343"
         sodipodi:rx="17.942343"
         sodipodi:cy="1599.9318"
         sodipodi:cx="955.57446"
         id="path4057"
         style="color:#000000;fill:#fffd47;fill-opacity:1;fill-rule:nonzero;stroke:none;stroke-width:20;marker:none;visibility:visible;display:inline;overflow:visible;enable-background:accumulate"
         sodipodi:type="arc" />
      <path
         inkscape:transform-center-y="-6.6979679"
         inkscape:transform-center-x="-11.700986"
         transform="matrix(0.43699253,0,0,0.43699253,537.99556,-1286.8643)"
         d="m 1033.7105,1621.3468 -65.33742,-11.4778 27.30917,60.456 -38.0845,-54.3165 -23.43833,62.0593 11.47779,-65.3374 -60.45598,27.3092 54.31654,-38.0845 -62.05933,-23.4384 65.3374,11.4778 -27.30917,-60.456 38.0845,54.3166 23.43834,-62.0594 -11.47779,65.3374 60.45598,-27.3091 -54.31655,38.0845 z"
         inkscape:randomized="0"
         inkscape:rounded="0"
         inkscape:flatsided="false"
         sodipodi:arg2="0.66020408"
         sodipodi:arg1="0.267505"
         sodipodi:r2="16.203508"
         sodipodi:r1="81.01754"
         sodipodi:cy="1599.9318"
         sodipodi:cx="955.57446"
         sodipodi:sides="8"
         id="path4059"
         style="color:#000000;fill:#fffd47;fill-opacity:1;fill-rule:nonzero;stroke:none;stroke-width:20;marker:none;visibility:visible;display:inline;overflow:visible;enable-background:accumulate"
         sodipodi:type="star" />
    </g>
    <g
       id="g4118"
       transform="matrix(0,-1,1,0,675.16332,-13.788761)">
      <rect
         style="opacity:0.98999999;color:#000000;fill:#ffffff;fill-opacity:1;stroke:none;stroke-width:5;marker:none;visibility:visible;display:inline;overflow:visible;filter:url(#filter4034);enable-background:accumulate"
         id="rect4073"
         width="127.01414"
         height="534.96875"
         x="487.60339"
         y="-412.40695"
         ry="32.542801" />
      <path
         transform="matrix(0,1,-1,0,966.41654,-685.17165)"
         d="m 455.59922,414.89542 c 0,16.04722 -13.00884,29.05607 -29.05607,29.05607 -16.04722,0 -29.05607,-13.00885 -29.05607,-29.05607 0,-16.04723 13.00885,-29.05608 29.05607,-29.05608 16.04723,0 29.05607,13.00885 29.05607,29.05608 z"
         sodipodi:ry="29.056072"
         sodipodi:rx="29.056072"
         sodipodi:cy="414.89542"
         sodipodi:cx="426.54315"
         id="path3913"
         style="color:#000000;fill:none;stroke:#000000;stroke-width:10;stroke-opacity:1;marker:none;visibility:visible;display:inline;overflow:visible;enable-background:accumulate"
         sodipodi:type="arc" />
      <path
         sodipodi:type="arc"
         style="color:#000000;fill:none;stroke:#000000;stroke-width:10;stroke-opacity:1;marker:none;visibility:visible;display:inline;overflow:visible;enable-background:accumulate"
         id="path3915"
         sodipodi:cx="426.54315"
         sodipodi:cy="414.89542"
         sodipodi:rx="29.056072"
         sodipodi:ry="29.056072"
         d="m 455.59922,414.89542 c 0,16.04722 -13.00884,29.05607 -29.05607,29.05607 -16.04722,0 -29.05607,-13.00885 -29.05607,-29.05607 0,-16.04723 13.00885,-29.05608 29.05607,-29.05608 16.04723,0 29.05607,13.00885 29.05607,29.05608 z"
         transform="matrix(0,1,-1,0,966.41654,-605.17165)" />
      <path
         transform="matrix(0,1,-1,0,966.41654,-525.17164)"
         d="m 455.59922,414.89542 c 0,16.04722 -13.00884,29.05607 -29.05607,29.05607 -16.04722,0 -29.05607,-13.00885 -29.05607,-29.05607 0,-16.04723 13.00885,-29.05608 29.05607,-29.05608 16.04723,0 29.05607,13.00885 29.05607,29.05608 z"
         sodipodi:ry="29.056072"
         sodipodi:rx="29.056072"
         sodipodi:cy="414.89542"
         sodipodi:cx="426.54315"
         id="path3917"
         style="color:#000000;fill:none;stroke:#000000;stroke-width:10;stroke-opacity:1;marker:none;visibility:visible;display:inline;overflow:visible;enable-background:accumulate"
         sodipodi:type="arc" />
      <path
         sodipodi:type="arc"
         style="color:#000000;fill:none;stroke:#000000;stroke-width:10;stroke-opacity:1;marker:none;visibility:visible;display:inline;overflow:visible;enable-background:accumulate"
         id="path3919"
         sodipodi:cx="426.54315"
         sodipodi:cy="414.89542"
         sodipodi:rx="29.056072"
         sodipodi:ry="29.056072"
         d="m 455.59922,414.89542 c 0,16.04722 -13.00884,29.05607 -29.05607,29.05607 -16.04722,0 -29.05607,-13.00885 -29.05607,-29.05607 0,-16.04723 13.00885,-29.05608 29.05607,-29.05608 16.04723,0 29.05607,13.00885 29.05607,29.05608 z"
         transform="matrix(0,1,-1,0,966.41654,-445.17165)" />
      <path
         transform="matrix(0,1,-1,0,966.41654,-365.17165)"
         d="m 455.59922,414.89542 c 0,16.04722 -13.00884,29.05607 -29.05607,29.05607 -16.04722,0 -29.05607,-13.00885 -29.05607,-29.05607 0,-16.04723 13.00885,-29.05608 29.05607,-29.05608 16.04723,0 29.05607,13.00885 29.05607,29.05608 z"
         sodipodi:ry="29.056072"
         sodipodi:rx="29.056072"
         sodipodi:cy="414.89542"
         sodipodi:cx="426.54315"
         id="path3921"
         style="color:#000000;fill:none;stroke:#000000;stroke-width:10;stroke-opacity:1;marker:none;visibility:visible;display:inline;overflow:visible;enable-background:accumulate"
         sodipodi:type="arc" />
      <path
         sodipodi:type="arc"
         style="color:#000000;fill:none;stroke:#ff5454;stroke-width:10;stroke-opacity:1;marker:none;visibility:visible;display:inline;overflow:visible;enable-background:accumulate"
         id="path4138"
         sodipodi:cx="426.54315"
         sodipodi:cy="414.89542"
         sodipodi:rx="29.056072"
         sodipodi:ry="29.056072"
         d="m 455.59922,414.89542 c 0,16.04722 -13.00884,29.05607 -29.05607,29.05607 -16.04722,0 -29.05607,-13.00885 -29.05607,-29.05607 0,-16.04723 13.00885,-29.05608 29.05607,-29.05608 16.04723,0 29.05607,13.00885 29.05607,29.05608 z"
         transform="matrix(0,1,-1,0,966.41654,-765.17165)" />
    </g>
    <path
       style="fill:none;stroke:#000000;stroke-width:1px;stroke-linecap:butt;stroke-linejoin:miter;stroke-opacity:1"
       d="m 399.44067,1635.153 c 44.30309,7.3838 -6.69875,-0.01 42.56335,3.2741 8.7794,0.5853 17.41631,2.6472 26.19283,3.2741 6.53157,0.4665 13.09642,0 19.64463,0 22.91872,0 45.83745,0 68.75618,0 9.82231,0 19.67855,-0.8157 29.46693,0 16.45835,1.3715 32.64876,5.2312 49.11156,6.5482 10.87892,0.8703 21.82736,0 32.74104,0 22.91873,0 45.83745,0 68.75618,0 13.09642,0 26.20766,-0.623 39.28925,0 9.87157,0.4701 19.60607,2.6167 29.46693,3.2741 6.53371,0.4356 13.16223,-0.9261 19.64463,0 51.39606,7.3423 9.17972,6.5482 36.01514,6.5482"
       id="path4160"
       inkscape:connector-curvature="0"
       transform="translate(0,-867.63785)" />
    <path
       style="fill:none;stroke:#000000;stroke-width:1px;stroke-linecap:butt;stroke-linejoin:miter;stroke-opacity:1"
       d="m 422.3594,1579.4932 c 13.75276,-1.7721 32.03634,1.7251 45.83745,0 37.2367,-4.6546 -23.06709,-3.2741 22.91873,-3.2741 14.52965,0 7.78967,0 26.19283,0 3.27411,0 6.71623,1.0354 9.82231,0 3.73306,-1.2444 6.30276,-4.7884 9.82232,-6.5482 0.97614,-0.4881 2.18273,0 3.2741,0 2.18274,0 4.36547,0 6.54821,0 7.63957,0 15.27915,0 22.91872,0 2.18274,0 4.59591,0.9761 6.54821,0 0.97615,-0.4881 0.2647,-2.2153 0,-3.2741 -0.83704,-3.3482 -2.59726,-6.4381 -3.2741,-9.8223 -4.21172,-21.0586 8.80354,14.3329 -6.54821,-16.3705 -0.48807,-0.9762 0.77171,-2.5024 0,-3.2742 -0.77171,-0.7717 -2.78603,0.9762 -3.2741,0 -0.51221,-1.0244 0,-17.6158 0,-19.6446 0,-4.7374 0,-12.0047 0,-16.3705 0,-1.0914 -0.2647,-2.2153 0,-3.2741 0.83704,-3.3482 2.70673,-6.4181 3.2741,-9.8223 0.53826,-3.2296 0,-6.5482 0,-9.8223 0,-3.2741 0,-6.5482 0,-9.8223 0,-2.1828 -0.69024,-4.4775 0,-6.5482 0.48808,-1.4643 2.89977,-1.7768 3.2741,-3.2741 0.79409,-3.1764 0,-6.5483 0,-9.8224 0,-2.1827 -1.21076,-4.732 0,-6.5482 1.35368,-2.0305 5.45684,-1.0913 6.54821,-3.2741 1.46423,-2.9284 -0.53826,-6.5927 0,-9.8223 0.56738,-3.4042 2.59727,-6.4381 3.27411,-9.8223 0.42807,-2.1403 -1.21077,-4.7321 0,-6.5482 1.35367,-2.0305 5.19453,-1.2436 6.5482,-3.2741 1.21077,-1.8162 -0.69024,-4.4775 0,-6.5482 0.48808,-1.4642 2.78603,-1.8099 3.27411,-3.2741 0.69024,-2.0707 0,-4.3655 0,-6.5482 0,-7.6396 0,-15.2792 0,-22.9188 0,-2.1827 -1.21077,-4.732 0,-6.5482 1.35367,-2.0305 4.8226,-1.5485 6.54821,-3.2741 1.7256,-1.7256 1.24359,-5.1945 3.2741,-6.5482 1.81615,-1.2107 4.59591,0.9762 6.54821,0 0.97615,-0.488 -0.77172,-2.5024 0,-3.2741 0.77171,-0.7717 2.18273,0 3.2741,0 2.18274,0 4.36547,0 6.54821,0 10.91368,0 21.82736,0 32.74104,0"
       id="path4166"
       inkscape:connector-curvature="0"
       transform="translate(0,-867.63785)" />
    <path
       style="fill:none;stroke:#000000;stroke-width:1px;stroke-linecap:butt;stroke-linejoin:miter;stroke-opacity:1"
       d="m 389.61836,1514.0111 c 4.36547,3.2741 8.21567,7.382 13.09642,9.8223 0.33764,0.1689 19.32259,0 19.64462,0 3.2741,0 6.71622,-1.0353 9.82231,0 19.05696,6.3524 -0.62247,11.0175 26.19283,6.5482 1.52243,-0.2537 2.18274,-2.1827 3.27411,-3.2741 2.18273,-2.1827 3.90125,-4.96 6.5482,-6.5482 2.95939,-1.7756 6.41806,-2.7067 9.82232,-3.2741 3.22955,-0.5382 7.09809,1.8162 9.82231,0 2.00138,-1.3342 -2.39498,-13.1772 0,-16.3705 2.07072,-2.761 7.06134,-1.2034 9.82231,-3.2741 10.22237,-7.6668 0.38502,-4.0441 3.2741,-9.8223 1.75978,-3.5196 5.08679,-6.1688 6.54821,-9.8223 0.81065,-2.0266 0,-4.3655 0,-6.5482 0,-6.5482 0,-13.0964 0,-19.6447 0,-3.2741 -0.53826,-6.5927 0,-9.8223 0.56738,-3.4042 2.18274,-6.5482 3.2741,-9.8223 2.18274,-3.2741 5.69459,-5.981 6.54821,-9.8223 1.42051,-6.3923 -0.72313,-13.1365 0,-19.6446 0.38112,-3.4301 2.89298,-6.3922 3.27411,-9.8223 0.72312,-6.5082 -1.42051,-13.2524 0,-19.6446 0.85361,-3.8413 4.78843,-6.3028 6.5482,-9.8224 0.48808,-0.9761 0,-2.1827 0,-3.2741 1.09137,-3.2741 1.73068,-6.7354 3.27411,-9.8223 1.75978,-3.5195 5.30385,-6.0892 6.54821,-9.8223 1.03536,-3.1061 -1.03537,-6.7162 0,-9.8223 0.34512,-1.0354 2.36603,0.6054 3.2741,0 2.56842,-1.7123 4.96003,-3.9012 6.54821,-6.5482 9.98294,-2.3178 1.26172,-9.0717 3.2741,-13.0964 1.75978,-3.5196 5.08679,-6.1688 6.54821,-9.8223 4.98911,-12.4728 -8.57872,-0.5668 3.2741,-16.3706 1.46423,-1.9523 5.45684,-1.0913 6.54821,-3.2741 1.46422,-2.9284 -0.4061,-6.5734 0,-9.8223 0.69024,-5.5219 2.58386,-10.8486 3.2741,-16.3705 0.40611,-3.2488 -1.46422,-6.8939 0,-9.8223 2.07073,-4.1414 7.75159,-5.6809 9.82232,-9.8223 1.46422,-2.9285 -1.46423,-6.8939 0,-9.8223 1.09136,-2.1828 5.08398,-1.3218 6.5482,-3.2741 2.07073,-2.761 1.49848,-6.863 3.27411,-9.8223 1.58817,-2.647 4.83593,-3.9798 6.54821,-6.5482 0.60538,-0.9081 0,-2.1828 0,-3.2741 0,-2.1828 -0.69025,-4.4775 0,-6.5483 0.48807,-1.4642 2.18273,-2.1827 3.2741,-3.2741 2.18274,-2.1827 4.83593,-3.9797 6.54821,-6.5482 0.90264,-1.3539 -0.78849,-10.7309 0,-13.0964 0.77171,-2.3151 2.50239,-4.2331 3.2741,-6.5482 0.34512,-1.0354 -0.97615,-2.786 0,-3.2741 1.9523,-0.9761 5.00478,1.5434 6.54821,0 3.67612,-3.6761 -2.92642,-8.8468 0,-9.8223 3.10609,-1.0354 7.09809,1.8161 9.82231,0 1.81615,-1.2108 -0.97615,-4.5959 0,-6.5482 0.48807,-0.9762 2.23874,0.3451 3.2741,0 2.31515,-0.7717 4.82261,-1.5485 6.54821,-3.2741 8.73095,-8.731 -3.2741,-5.4569 9.82231,-9.8223 1.03537,-0.3452 2.18274,0 3.27411,0 2.18273,0 4.36547,0 6.54821,0 7.63957,0 15.27915,0 22.91872,0"
       id="path4168"
       inkscape:connector-curvature="0"
       transform="translate(0,-867.63785)" />
    <path
       style="fill:none;stroke:#000000;stroke-width:1px;stroke-linecap:butt;stroke-linejoin:miter;stroke-opacity:1"
       d="m 376.52195,1464.8996 c 5.45684,-4.3655 10.91368,-8.731 16.37052,-13.0965 2.18273,-1.0913 4.64259,-1.7496 6.5482,-3.2741 3.61565,-2.8925 6.54821,-6.5482 9.82231,-9.8223 3.27411,-3.2741 7.75159,-5.6808 9.82232,-9.8223 17.23707,-34.4741 -23.44061,16.8924 9.82231,-16.3705 0.0161,-0.016 -0.0252,-9.6963 0,-9.8223 0.67684,-3.3842 1.20338,-7.0614 3.2741,-9.8223 1.46423,-1.9523 4.23307,-2.5024 6.54821,-3.2741 1.03536,-0.3451 2.78603,0.9761 3.2741,0 0.97615,-1.9523 0,-4.3655 0,-6.5482 0,-1.0914 -0.60538,-2.3661 0,-3.2741 1.71228,-2.5685 4.83593,-3.9798 6.54821,-6.5482 0.60538,-0.9081 0,-2.1828 0,-3.2742 0,-5.4568 0,-10.9136 0,-16.3705 0,-1.0913 -0.26469,-2.2153 0,-3.2741 1.09137,-3.2741 2.18274,-6.5482 3.2741,-9.8223 2.18274,-2.1827 5.40178,-3.6821 6.54821,-6.5482 1.21597,-3.0399 0,-6.5482 0,-9.8223 0,-6.5482 0,-13.0964 0,-19.6446 0,-3.2741 -0.46303,-6.5811 0,-9.8223 0.63637,-4.4546 2.53434,-8.6579 3.27411,-13.0965 0.35884,-2.153 0,-4.3654 0,-6.5482 0,-4.3654 0,-8.7309 0,-13.0964 0,-2.1827 -0.69025,-4.4775 0,-6.5482 1.54342,-4.6303 5.20736,-8.4034 6.5482,-13.0964 0.89947,-3.1481 -0.53826,-6.5928 0,-9.8223 3.96435,-23.7861 3.27411,1.1507 3.27411,-16.3705 0,-3.2741 0,-6.5482 0,-9.8223 0,-1.0914 -0.48808,-2.298 0,-3.2741 1.75978,-3.5196 5.08679,-6.1688 6.54821,-9.8224 0.81064,-2.0266 0,-4.3654 0,-6.5482 1.09136,-3.2741 1.73067,-6.7354 3.2741,-9.8223 1.75978,-3.5195 4.78843,-6.3027 6.54821,-9.8223 0.83902,-1.678 -0.65621,-10.4716 0,-13.0964 4.56006,-18.2402 0.55663,-2.472 9.82231,-16.3705 0.91223,-1.3684 -0.89831,-16.9497 0,-19.6446 0.48807,-1.4643 2.78603,-1.8099 3.2741,-3.2742 1.32711,-3.9813 -1.50793,-12.6006 0,-16.3705 1.46142,-3.6535 5.30386,-6.0892 6.54821,-9.8223 1.03536,-3.1061 -0.53826,-6.5927 0,-9.8223 0.56738,-3.4042 2.78603,-6.4058 3.2741,-9.8223 0.61738,-4.3216 -1.71964,-9.0839 0,-13.0964 1.82396,-4.2559 7.75159,-5.6809 9.82232,-9.8223 1.46422,-2.9285 0,-6.5482 0,-9.8223 0,-8.731 0,-17.4619 0,-26.1929 0,-3.2741 -1.21598,-6.7824 0,-9.82229 1.46141,-3.65354 4.78843,-6.30275 6.5482,-9.82231 0.48808,-0.97615 0,-2.18274 0,-3.2741 0,-2.18274 0,-4.36548 0,-6.54821 0,-9.82231 0,-19.64463 0,-29.46694 0,-2.83728 -0.6322,-11.19981 0,-13.09641 0.77172,-2.31514 2.50239,-4.23307 3.27411,-6.54821 0.72139,-2.16418 0,-19.40615 0,-22.91873 0,-16.37052 0,-32.74104 0,-49.11156 0,-2.30231 -0.64358,-18.67925 0,-19.64462 1.71228,-2.56842 4.83593,-3.97979 6.54821,-6.54821 0.60538,-0.90807 0,-2.18273 0,-3.2741 0,-4.26337 0.65623,-16.36343 0,-19.64462 -0.4786,-2.39299 -2.79551,-4.15523 -3.27411,-6.54821 -0.32106,-1.60532 0.88555,-17.43076 0,-19.64462 -1.46141,-3.65355 -4.78843,-6.30276 -6.54821,-9.82232 -0.47048,-0.94096 0,-20.97677 0,-22.91872 0,-2.18274 0,-4.36548 0,-6.54821 0,-1.09137 0.34512,-2.23874 0,-3.27411 -0.77171,-2.31514 -2.50239,-4.23306 -3.2741,-6.5482 -0.34512,-1.03537 0,-2.18274 0,-3.27411 0,-3.2741 1.21597,-6.78238 0,-9.82231 -1.14643,-2.86607 -4.83593,-3.97979 -6.54821,-6.54821 -0.60538,-0.90807 0,-2.18273 0,-3.2741 0,-2.18274 0,-4.36547 0,-6.54821 0,-4.69969 0.86144,-16.19887 0,-19.64462 -0.37433,-1.49735 -2.78603,-1.80988 -3.2741,-3.27411 -1.81895,-5.45683 2.72842,-10.91367 0,-16.37051 -1.09137,-2.18274 -5.19453,-1.2436 -6.54821,-3.27411 -1.21076,-1.81614 0,-4.36547 0,-6.54821 0,-2.81026 0.63854,-17.72901 0,-19.64462 -0.48807,-1.46422 -2.78603,-1.80988 -3.2741,-3.2741 -0.69024,-2.07073 1.21076,-4.73206 0,-6.54821 -1.35368,-2.03051 -5.19454,-1.24359 -6.54821,-3.2741 -1.21076,-1.81615 0,-4.36548 0,-6.54821 0,-6.54821 0,-13.09642 0,-19.64463 0,-1.09136 0.34512,-2.23874 0,-3.2741 -0.77171,-2.31514 -2.79551,-4.15522 -3.2741,-6.54821 -0.35102,-1.75507 -0.23414,-28.53039 0,-29.46693 0.37433,-1.49735 2.89976,-1.77676 3.2741,-3.27411 0.63223,-2.52893 0,-25.41897 0,-29.46693"
       id="path4170"
       inkscape:connector-curvature="0"
       transform="translate(0,-867.63785)" />
    <path
       style="fill:none;stroke:#000000;stroke-width:1px;stroke-linecap:butt;stroke-linejoin:miter;stroke-opacity:1"
       d="m 389.61836,1314.2908 c 0,-6.5482 -0.72313,-13.1365 0,-19.6446 0.38112,-3.4301 2.78603,-6.4058 3.27411,-9.8224 0.61737,-4.3215 -0.85614,-8.8157 0,-13.0964 1.35367,-6.7683 4.36547,-13.0964 6.5482,-19.6446 1.09137,-3.2741 2.84604,-6.3977 3.27411,-9.8223 0.67683,-5.4147 0,-10.9137 0,-16.3705 0,-2.2592 0,-46.7511 0,-52.3857 0,-8.7309 -1.15392,-17.5385 0,-26.1928 1.05007,-7.8756 5.24201,-15.0816 6.5482,-22.9187 0.8971,-5.3826 0,-10.9137 0,-16.3706 0,-6.5482 0,-13.0964 0,-19.6446 0,-29.4669 0,-58.9339 0,-88.40079 0,-16.37052 0,-32.74104 0,-49.11156 0,-2.39756 0.65043,-16.39249 0,-19.64462 -0.67683,-3.38419 -2.70672,-6.41806 -3.2741,-9.82231 -0.53826,-3.22956 0,-6.54821 0,-9.82231 0,-10.91368 0,-21.82736 0,-32.74104 0,-6.51282 0,-13.13181 0,-19.64463 0,-3.2741 1.21597,-6.78238 0,-9.82231 -1.14643,-2.86607 -5.57206,-3.61976 -6.54821,-6.54821 -1.38048,-4.14145 0,-8.73094 0,-13.09641 0,-12.09658 -2.35412,-24.75869 3.27411,-36.01514 1.75977,-3.51956 5.30385,-6.08926 6.5482,-9.82231 1.38049,-4.14146 0,-8.73095 0,-13.09642 0,-9.82231 0,-19.64462 0,-29.46694 0,-2.18273 -0.35884,-4.39517 0,-6.5482 0.73977,-4.4386 2.53434,-8.65782 3.27411,-13.09642 0.35884,-2.15304 0,-4.36547 0,-6.54821 0,-1.09136 -0.34512,-2.23874 0,-3.2741 1.85853,-5.5756 5.27326,-10.63328 6.54821,-16.37052 0.947,-4.26152 -0.61737,-8.77482 0,-13.09642 0.48807,-3.41652 2.84603,-6.39775 3.2741,-9.82231 0.67684,-5.4147 0,-10.91368 0,-16.37052 0,-3.2741 -1.46422,-6.89386 0,-9.82231 1.09137,-2.18273 5.45684,-1.09137 6.54821,-3.2741 1.46422,-2.92845 0,-6.54821 0,-9.82231 0,-2.18274 0,-4.36548 0,-6.54821 0,-1.09137 -0.34512,-2.23874 0,-3.2741 0.77171,-2.31515 2.50239,-4.23307 3.2741,-6.54821 0.34512,-1.03537 0,-2.18274 0,-3.27411 0,-3.2741 0,-6.5482 0,-9.82231 0,-3.2741 -1.21597,-6.78238 0,-9.82231 1.14643,-2.86607 4.83593,-3.97979 6.54821,-6.54821 0.60538,-0.90807 0,-2.18273 0,-3.2741 0,-3.21637 -0.72183,-17.47914 0,-19.64462 0.77171,-2.31515 2.50239,-4.23307 3.2741,-6.54821 0.7684,-2.30518 0,-19.75717 0,-22.91873 0,-2.18274 -0.81064,-4.52159 0,-6.54821 1.46142,-3.65354 4.78843,-6.30275 6.54821,-9.82231 0.48808,-0.97615 0,-2.18273 0,-3.2741 0,-2.18274 -0.42807,-4.40786 0,-6.54821 0.67684,-3.38419 2.70673,-6.41806 3.2741,-9.82231 0.71768,-4.30608 0,-8.73095 0,-13.09642 0,-3.2741 0,-6.54821 0,-9.82231 0,-2.18274 -1.21076,-4.73206 0,-6.54821 1.35368,-2.03051 5.19454,-1.24359 6.54821,-3.2741 1.21077,-1.81615 0,-4.36547 0,-6.54821 0,-3.2741 0,-6.54821 0,-9.82231 0,-9.82231 0,-19.64462 0,-29.46694 0,-3.2741 -0.79408,-6.64596 0,-9.82231 0.37434,-1.49734 2.78603,-1.80988 3.27411,-3.2741 0.69024,-2.07073 0,-4.36547 0,-6.54821 0,-3.2741 0,-6.54821 0,-9.82231 0,-3.2741 -1.46423,-6.89386 0,-9.82231 1.09136,-2.18274 4.36547,-2.18274 6.5482,-3.27411"
       id="path4172"
       inkscape:connector-curvature="0"
       transform="translate(0,-867.63785)" />
    <path
       style="fill:none;stroke:#000000;stroke-width:1px;stroke-linecap:butt;stroke-linejoin:miter;stroke-opacity:1"
       d="m 586.06459,427.00863 c -1.09136,4.36547 -2.18273,8.73095 -3.2741,13.09642 -2.18274,3.2741 -5.30386,6.08926 -6.54821,9.82231 -1.45251,4.35754 0.95526,18.14244 0,22.91873 -0.47859,2.39298 -2.50239,4.23306 -3.2741,6.5482 -0.34512,1.03537 0,2.18274 0,3.27411 0,6.54821 0,13.09641 0,19.64462 0,2.40345 0.57072,18.50319 0,19.64462 -1.75978,3.51956 -5.59384,6.00482 -6.54821,9.82232 -1.32348,5.29391 0,10.91368 0,16.37052 0,7.63957 0,15.27915 0,22.91872 0,13.09642 0,26.19283 0,39.28925 0,2.18274 0,4.36547 0,6.54821 0,3.2741 1.03536,6.71622 0,9.82231 -0.34512,1.03536 -2.92898,-1.03536 -3.2741,0 -1.03537,3.10609 0,6.54821 0,9.82231 0,7.63958 0,15.27915 0,22.91873 0,6.54821 0,13.09641 0,19.64462 0,2.18274 -0.97615,4.59591 0,6.54821 0.48807,0.97615 2.50239,-0.77171 3.2741,0 0.77171,0.77171 -0.77171,2.50239 0,3.2741 0.77171,0.77172 2.18274,0 3.2741,0 0,2.18274 -1.21076,4.73206 0,6.54821 1.35368,2.03051 4.45561,2.01854 6.54821,3.2741 3.37422,2.02454 7.36415,3.47551 9.82231,6.54821 2.15596,2.69494 1.73068,6.73546 3.27411,9.82231 9.57171,19.14343 2.91564,3.88753 9.82231,13.09642 2.24156,2.98875 8.29881,11.80002 9.82231,16.37052 0.81853,2.45558 -1.63705,8.18526 0,9.82231 5.32444,5.32443 6.96149,-5.30837 9.82231,3.2741 0.69024,2.07073 -1.21076,4.73207 0,6.54821 1.35368,2.03051 4.82261,1.5485 6.54821,3.27411 1.7256,1.7256 1.24359,5.19453 3.2741,6.5482 1.81615,1.21077 4.47749,-0.69024 6.54821,0 1.46423,0.48808 2.18274,2.18274 3.27411,3.27411 2.18273,2.18273 4.83592,3.97979 6.5482,6.54821 0.60539,0.90807 -0.77171,2.50239 0,3.2741 0.77172,0.77171 2.18274,0 3.27411,0 2.18273,0 5.00478,-1.54343 6.54821,0 3.97582,3.97583 -4.35477,7.91509 3.2741,9.82231 3.17635,0.79409 6.54821,0 9.82231,0 3.2741,2.18274 6.16877,5.08679 9.82231,6.54821 2.02662,0.81065 4.36547,0 6.54821,0 3.2741,1.09137 6.73546,1.73067 9.82231,3.2741 3.51956,1.75978 6.08926,5.30386 9.82231,6.54821 26.19283,8.73094 1.45516,-2.91031 13.09642,0 3.34816,0.83704 6.43812,2.59727 9.82231,3.2741 2.14035,0.42807 4.73206,-1.21076 6.54821,0 2.03051,1.35368 1.5485,4.82261 3.2741,6.54821 1.72561,1.72561 5.19453,1.24359 6.54821,3.27411 1.21076,1.81614 -0.97615,4.5959 0,6.5482 0.48807,0.97615 2.23874,-0.34512 3.2741,0 2.31514,0.77172 5.19454,1.24359 6.54821,3.27411 2.18274,3.2741 -1.09137,6.5482 0,9.82231 0.77172,2.31514 2.79551,4.15522 3.27411,6.54821 0.6421,3.21052 -1.46423,6.89386 0,9.82231 2.07072,4.14145 6.5482,6.54821 9.82231,9.82231 28.69602,28.69602 -6.42105,-7.70526 16.37052,19.64462 2.96423,3.55708 7.25389,5.96969 9.82231,9.82231 1.91438,2.87158 1.73067,6.73546 3.2741,9.82232 1.75978,3.51955 4.18722,6.67432 6.54821,9.82231 0.92606,1.23474 2.78603,1.80988 3.2741,3.2741 0.69025,2.07073 0,4.36547 0,6.54821 0,1.09137 -0.97615,2.78603 0,3.2741 1.9523,0.97615 5.00478,-1.54342 6.54821,0 2.48221,2.48221 -3.39699,11.92313 3.27411,16.37052 1.81614,1.21077 4.47748,-0.69024 6.5482,0 6.96893,2.32298 0.23157,5.25851 3.27411,9.82231 15.2002,7.6001 0.55582,-2.16246 6.5482,9.82232 0.48808,0.97615 2.23875,-0.34512 3.27411,0 2.31514,0.77171 5.19453,1.24359 6.54821,3.2741 2.18273,3.2741 -1.09137,6.54821 0,9.82231 0.77171,2.31514 2.50239,4.23307 3.2741,6.54821 0.34512,1.03536 -0.97615,2.78603 0,3.2741 1.9523,0.97615 5.00478,-1.54342 6.54821,0 1.63705,1.63706 -0.81853,7.3667 0,9.8223 0.77171,2.3152 2.50239,4.2331 3.2741,6.5482 0.34512,1.0354 -0.97615,2.7861 0,3.2741 1.9523,0.9762 5.00478,-1.5434 6.54821,0 1.54343,1.5435 0,4.3655 0,6.5482 0,14.1878 0,28.3756 0,42.5634 0,2.1827 0,4.3655 0,6.5482 0,1.0914 0.77171,2.5024 0,3.2741 -5.45684,5.4568 -3.2741,-12.0051 -3.2741,6.5482 0,1.0914 0.97614,-2.786 0,-3.2741 -7.63958,-3.8198 -6.54821,-0.2728 -6.54821,3.2741"
       id="path4180"
       inkscape:connector-curvature="0"
       transform="translate(0,-867.63785)" />
    <path
       style="fill:none;stroke:#000000;stroke-width:1px;stroke-linecap:butt;stroke-linejoin:miter;stroke-opacity:1"
       d="m 890.55625,1311.0167 c 4.36548,0 13.09642,-4.3655 13.09642,0 0,4.3655 -16.18327,3.0868 -13.09642,0 6.54821,-2.1828 13.09642,-4.3655 19.64463,-6.5482 0,-1.0914 -0.77172,-2.5024 0,-3.2741 0.77171,-0.7717 2.78603,0.9761 3.2741,0 1.30964,-2.6193 -1.30964,-7.2031 0,-9.8223 1.75978,-3.5196 5.30386,-6.0893 6.54821,-9.8224 1.03536,-3.106 0,-6.5482 0,-9.8223 0,-2.1827 0,-4.3654 0,-6.5482 0,-1.0913 -0.34512,-2.2387 0,-3.2741 0.77171,-2.3151 2.79551,-4.1552 3.2741,-6.5482 0.65624,-3.2812 0,-15.3812 0,-19.6446 0,-4.3655 0,-8.731 0,-13.0964 0,-2.1828 0,-4.3655 0,-6.5482 0,-1.0914 0.34512,-2.2388 0,-3.2741 -0.77171,-2.3152 -2.50239,-4.2331 -3.2741,-6.5482 -0.7214,-2.1642 0,-19.4062 0,-22.9188 0,-8.7309 0,-17.4619 0,-26.1928 0,-2.8373 0.6322,-11.1998 0,-13.0964 -0.77171,-2.3152 -2.79551,-4.1552 -3.2741,-6.5482 -0.85614,-4.2807 0,-8.731 0,-13.0964 0,-2.1828 -0.69025,-4.4775 0,-6.5482 0.48807,-1.4643 2.89976,-1.7768 3.2741,-3.2742 0.79409,-3.1763 0,-6.5482 0,-9.8223 0,-5.4568 0,-10.9136 0,-16.3705 0,-20.736 0,-41.472 0,-62.208 0,-18.5532 0,-37.10647 0,-55.65972 0,-2.02882 0.5122,-18.62022 0,-19.64463 -0.48808,-0.97615 -2.23874,0.34512 -3.2741,0 -2.31515,-0.77171 -5.45684,-1.09137 -6.54821,-3.2741 0,-3.27411 0,-6.54821 0,-9.82231 -1.09137,0 -2.78603,0.97615 -3.27411,0 -0.97615,-1.9523 1.54343,-5.00478 0,-6.54821 -1.54342,-1.54343 -4.59591,0.97615 -6.5482,0 -0.97615,-0.48808 0.34512,-2.23874 0,-3.2741 -0.77172,-2.31515 -1.24359,-5.19454 -3.27411,-6.54821 -1.81614,-1.21077 -4.36547,0 -6.54821,0 -3.2741,-1.09137 -7.06134,-1.20338 -9.82231,-3.27411 -1.9523,-1.46422 -1.5485,-4.8226 -3.2741,-6.5482 -1.72561,-1.72561 -4.8226,-1.5485 -6.54821,-3.27411 -1.7256,-1.7256 -1.5485,-4.8226 -3.2741,-6.54821 -1.72561,-1.7256 -4.23307,-2.50239 -6.54821,-3.2741 -1.03536,-0.34512 -2.78603,0.97615 -3.2741,0 -8.73095,-17.46189 10.91368,2.18274 -6.54821,-6.54821 -0.97615,-0.48807 0.26469,-2.21532 0,-3.2741 -0.83704,-3.34817 -1.49847,-6.86293 -3.27411,-9.82231 -1.58817,-2.64696 -4.96003,-3.90125 -6.5482,-6.54821 -1.77564,-2.95939 -0.83373,-7.38194 -3.27411,-9.82231 -2.44037,-2.44037 -6.86292,-1.49847 -9.82231,-3.27411 -2.64696,-1.58817 -4.36547,-4.36547 -6.54821,-6.5482 -1.09137,-1.09137 -1.80988,-2.78603 -3.2741,-3.27411 -2.07073,-0.69024 -5.00478,1.54343 -6.54821,0 -2.44037,-2.44037 -1.11815,-7.12737 -3.2741,-9.82231 -8.83171,-11.03964 -9.47662,-3.04364 -19.64463,-9.82231 -3.2741,-3.2741 -6.5482,-6.54821 -9.82231,-9.82231 0,-2.18274 1.54343,-5.00478 0,-6.54821 -1.54342,-1.54343 -4.59591,0.97615 -6.54821,0 -0.97614,-0.48807 0.77172,-2.50239 0,-3.2741 -0.77171,-0.77172 -2.18273,0 -3.2741,0 0,-2.18274 1.54343,-5.00478 0,-6.54821 -5.32443,-5.32444 -6.96149,5.30837 -9.82231,-3.27411 -0.69024,-2.07072 1.54343,-5.00478 0,-6.5482 -5.32444,-5.32444 -6.96149,5.30837 -9.82231,-3.27411 -0.37274,-1.11821 0.43827,-15.93224 0,-16.37052 -3.97583,-3.97583 -7.9151,4.35477 -9.82231,-3.2741 -8.2185,-32.874 10.06361,11.31586 -6.54821,-16.37052 -1.77563,-2.95939 -0.83373,-7.38194 -3.27411,-9.82231 -1.54342,-1.54343 -4.47748,0.69024 -6.5482,0 -2.49023,-0.83008 -9.67076,-12.94486 -9.82232,-13.09642 -0.77171,-0.77171 -2.78602,0.97615 -3.2741,0 -0.97615,-1.9523 1.21077,-4.73206 0,-6.5482 -1.35367,-2.03052 -5.45684,-1.09137 -6.54821,-3.27411 -1.46422,-2.92845 1.03537,-6.71622 0,-9.82231 -0.34512,-1.03536 -2.78603,0.97615 -3.2741,0 -0.97615,-1.9523 0,-4.36547 0,-6.54821 -2.18274,-3.2741 -4.18722,-6.67432 -6.54821,-9.82231 -2.90754,-3.87673 -10.01833,-7.97546 -13.09641,-9.82231 -2.09261,-1.25556 -4.82261,-1.5485 -6.54821,-3.27411 -1.72561,-1.7256 -2.50239,-4.23306 -3.27411,-6.5482 -0.34512,-1.03537 0.97615,-2.78603 0,-3.27411 -1.95229,-0.97615 -5.00478,1.54343 -6.5482,0 -0.7032,-0.7032 0,-15.30165 0,-16.37052 0,-4.36547 0.71768,-8.79034 0,-13.09641 -0.4012,-2.40717 -2.50239,-4.23307 -3.27411,-6.54821 -0.34512,-1.03536 0,-2.18274 0,-3.2741 0,-2.18274 0,-4.36548 0,-6.54821 0,-9.82231 0,-19.64462 0,-29.46694 0,-1.09136 0,-2.18273 0,-3.2741 0,-2.18274 1.21077,-4.73206 0,-6.54821 -1.35367,-2.03051 -5.19453,-1.24359 -6.5482,-3.2741 -0.64275,-0.96411 0,-17.76099 0,-19.64462 0,-18.55326 0,-37.10652 0,-55.65977 0,-0.56174 0.4002,-18.44402 0,-19.64462 -0.48808,-1.46423 -2.78603,-1.80988 -3.27411,-3.27411 -0.69024,-2.07072 1.21077,-4.73206 0,-6.54821 -1.35367,-2.03051 -5.45684,-1.09136 -6.54821,-3.2741 -1.46422,-2.92845 0,-6.54821 0,-9.82231 0,-6.51282 0,-13.1318 0,-19.64462 0,-21.82736 0,-43.65472 0,-65.48208"
       id="path4186"
       inkscape:connector-curvature="0"
       transform="translate(0,-867.63785)" />
    <path
       style="fill:none;stroke:#000000;stroke-width:1px;stroke-linecap:butt;stroke-linejoin:miter;stroke-opacity:1"
       d="m 726.85106,413.91222 c 2.18274,5.45684 4.36547,10.91368 6.54821,16.37052 0,1.09136 -0.2647,2.21532 0,3.2741 0.83704,3.34816 2.70673,6.41806 3.2741,9.82231 0.53826,3.22956 -0.79408,6.64597 0,9.82231 1.42543,5.70172 3.91985,11.1138 6.54821,16.37052 0.69024,1.38049 2.89977,1.77676 3.2741,3.27411 0.79409,3.17634 -1.03536,6.71622 0,9.82231 1.24435,3.73305 5.59384,6.00482 6.54821,9.82231 1.32348,5.29391 0,10.91368 0,16.37052 0,10.91368 0,21.82736 0,32.74104 0,3.2741 -0.6421,6.61179 0,9.82231 0.4786,2.39298 2.79551,4.15523 3.27411,6.54821 0.85613,4.28069 0,8.73094 0,13.09641 0,6.54821 0,13.09642 0,19.64463 0,2.18273 -1.21077,4.73206 0,6.5482 1.35367,2.03052 5.45684,1.09137 6.5482,3.27411 0.90948,1.81894 -0.60631,13.33894 0,16.37052 0.67684,3.38419 2.43707,6.47414 3.27411,9.82231 0.26469,1.05878 0,2.18273 0,3.2741 0,2.18274 0,4.36547 0,6.54821 0,4.36547 0,8.73094 0,13.09642 0,2.18273 -1.54343,5.00478 0,6.5482 1.54342,1.54343 4.59591,-0.97615 6.5482,0 0.25313,0.12657 -0.76061,12.3358 0,13.09642 0.77172,0.77171 2.36604,-0.60538 3.27411,0 2.18273,2.18274 4.36547,4.36547 6.54821,6.54821 0,1.09137 -0.65482,2.40101 0,3.2741 2.77817,3.70423 7.44005,5.85188 9.82231,9.82231 1.12301,1.87168 -0.97615,4.59591 0,6.54821 0.48807,0.97615 2.23874,-0.34512 3.2741,0 2.31514,0.77171 4.82261,1.5485 6.54821,3.2741 1.7256,1.72561 1.5485,4.82261 3.2741,6.54821 1.72561,1.72561 4.45561,2.01854 6.54821,3.27411 3.37422,2.02453 7.03986,3.76575 9.82231,6.5482 0.77172,0.77172 0,2.18274 0,3.27411 1.09137,2.18273 1.5485,4.8226 3.27411,6.54821 1.7256,1.7256 4.8226,1.54849 6.5482,3.2741 1.72561,1.7256 1.5485,4.8226 3.27411,6.54821 1.7256,1.7256 5.08398,1.3218 6.54821,3.2741 2.07072,2.76097 1.11815,7.12737 3.2741,9.82231 2.45816,3.07271 6.79937,4.0291 9.82231,6.54821 3.55708,2.96423 5.85188,7.44005 9.82231,9.82231 1.87168,1.12301 5.00478,-1.54343 6.54821,0 2.44037,2.44037 2.43706,6.47415 3.2741,9.82231 0.2647,1.05879 -0.77171,2.50239 0,3.27411 2.78246,2.78245 7.03986,3.76575 9.82232,6.54821 0.77171,0.77171 0,2.18273 0,3.2741 3.2741,2.18273 6.44809,4.52367 9.82231,6.54821 2.0926,1.25556 5.19453,1.24359 6.54821,3.2741 1.21076,1.81615 0,4.36547 0,6.54821 0,1.09137 -0.77172,2.50239 0,3.2741 0.77171,0.77172 2.36603,-0.60538 3.2741,0 2.56842,1.71228 4.36547,4.36547 6.54821,6.54821 1.09137,1.09137 2.78603,1.80988 3.2741,3.2741 0.69024,2.07073 0,4.36548 0,6.54821 0,1.09137 -0.97615,2.78603 0,3.27411 1.9523,0.97614 5.00478,-1.54343 6.54821,0 1.54343,1.54342 -0.97615,4.5959 0,6.5482 0.48807,0.97615 2.23874,-0.34512 3.2741,0 2.31514,0.77172 4.82261,1.5485 6.54821,3.27411 1.72561,1.7256 1.74962,4.64259 3.2741,6.5482 2.89252,3.61565 6.85808,6.26524 9.82232,9.82232 2.51911,3.02293 3.4755,7.36414 6.5482,9.82231 2.69495,2.15595 7.06135,1.20338 9.82232,3.2741 1.95229,1.46423 1.5485,4.82261 3.2741,6.54821 1.7256,1.7256 5.19453,1.24359 6.54821,3.2741 1.21076,1.81615 -0.97615,4.59591 0,6.54821 0.48807,0.97615 2.50239,-0.77171 3.2741,0 0.77171,0.77171 -0.60538,2.36603 0,3.27411 1.71228,2.56841 4.83593,3.97978 6.54821,6.5482 0.60538,0.90808 -0.77171,2.50239 0,3.27411 0.77171,0.77171 2.78603,-0.97615 3.2741,0 0.97615,1.9523 0,4.36547 0,6.5482 0,1.09137 -0.60538,2.36604 0,3.27411 1.71228,2.56842 4.83593,3.97979 6.54821,6.54821 0.60538,0.90807 0,2.18273 0,3.2741 0,2.18274 0,4.36547 0,6.54821 0,6.54821 0,13.09641 0,19.64462 0,3.2741 0.53826,6.59276 0,9.82231 -0.56737,3.40425 -2.43706,6.47415 -3.2741,9.82231 -0.2647,1.05879 0,2.18274 0,3.27411 0,2.18273 0,4.36547 0,6.54821 0,7.63957 0,15.27915 0,22.91872 0,3.27411 1.21597,6.7824 0,9.8223 -1.14643,2.8661 -4.83593,3.9798 -6.54821,6.5482 -0.60538,0.9081 0,2.1828 0,3.2741 0,6.5482 0,13.0964 0,19.6446 0,3.2742 -1.03536,6.7163 0,9.8224 0.34512,1.0353 2.92898,-1.0354 3.2741,0 1.03537,3.106 0,6.5482 0,9.8223 0,9.8223 0,19.6446 0,29.4669 0,3.2741 -1.21597,6.7824 0,9.8223 1.14643,2.8661 4.83593,3.9798 6.54821,6.5482 0.45967,0.6895 -0.2417,21.7103 0,22.9188 0.4786,2.3929 2.50239,4.233 3.2741,6.5482 0.54869,1.646 0,18.7894 0,19.6446 0,9.8223 0,19.6446 0,29.4669 0,4.3655 0,8.731 0,13.0964 0,3.2741 -1.03536,6.7163 0,9.8223 1.24436,3.7331 5.30386,6.0893 6.54821,9.8224 1.03536,3.106 -0.53826,6.5927 0,9.8223 0.56738,3.4042 2.70672,6.418 3.27412,9.8223 0.5382,3.2295 -1.216,6.7824 0,9.8223 1.1464,2.8661 5.4018,3.6821 6.5482,6.5482 0.2141,0.5353 0,22.0844 0,22.9187 0,8.731 0,17.4619 0,26.1929 0,3.2741 0.7941,6.6459 0,9.8223 -0.3743,1.4973 -2.786,1.8099 -3.2741,3.2741 -0.6385,1.9156 0,16.8343 0,19.6446 0,2.1827 0,4.3655 0,6.5482 0,1.0914 0.6054,2.366 0,3.2741 -1.7123,2.5684 -4.8359,3.9798 -6.54822,6.5482 -0.60538,0.9081 0,2.1828 0,3.2741 0,2.1828 0,4.3655 0,6.5482 0,6.5482 0,13.0964 0,19.6447 0,1.0913 0.77172,2.5023 0,3.2741 -0.77171,0.7717 -2.92898,-1.0354 -3.2741,0 -1.03536,3.106 0,6.5482 0,9.8223 0,2.1827 0,4.3654 0,6.5482 0,3.4015 0.44859,12.8721 0,13.0964 -1.9523,0.9761 -5.33745,-1.8162 -6.54821,0 -1.81615,2.7242 0,6.5482 0,9.8223 0,2.1827 0,4.3655 0,6.5482 0,10.762 0.48808,-8.9886 -3.2741,9.8223 -1.28421,6.4211 2.07072,13.4325 0,19.6446 -1.24435,3.7331 -4.78843,6.3028 -6.54821,9.8224 -0.47048,0.9409 0,20.9767 0,22.9187 0,16.3705 0,32.741 0,49.1115 0,6.5483 0,13.0965 0,19.6447 0,2.1827 0.42807,4.4078 0,6.5482 -0.67684,3.3842 -2.43706,6.4741 -3.2741,9.8223 -0.73987,2.9594 0,15.7966 0,19.6446 0,1.0914 0.60538,2.366 0,3.2741 -1.71228,2.5684 -4.83593,3.9798 -6.54821,6.5482 -0.60538,0.9081 0,2.1828 0,3.2741 0,2.1828 0.42807,4.4079 0,6.5482 -0.67684,3.3842 -2.43707,6.4742 -3.27411,9.8223 -0.26469,1.0588 0,2.1828 0,3.2741 0,2.1828 0,4.3655 0,6.5483 0,6.5482 0,13.0964 0,19.6446 0,3.2741 1.21598,6.7824 0,9.8223 -1.46141,3.6535 -4.78843,6.3027 -6.5482,9.8223 -0.48808,0.9762 0.77171,2.5024 0,3.2741 -0.77172,0.7717 -2.78603,-0.9761 -3.27411,0 -0.97615,1.9523 1.81615,5.3374 0,6.5482 -2.72422,1.8162 -6.54821,0 -9.82231,0 -5.45684,0 -10.91368,0 -16.37052,0 -1.09137,0 -2.23874,-0.3451 -3.2741,0 -2.31514,0.7717 -4.23307,2.5024 -6.54821,3.2741 -1.89661,0.6322 -10.25913,0 -13.09642,0 -2.18273,0 -4.36547,0 -6.5482,0 -1.09137,0 -2.50239,0.7717 -3.27411,0 -0.77171,-0.7717 0.77172,-2.5024 0,-3.2741 -1.7256,-1.7256 -5.19453,-1.2436 -6.54821,-3.2741 -3.23665,-4.855 0.74524,-7.2934 3.27411,-9.8223"
       id="path4188"
       inkscape:connector-curvature="0"
       transform="translate(0,-867.63785)" />
  </g>
</svg>
